<svg xmlns="http://www.w3.org/2000/svg" viewBox="0 0 170 170"><style>.a{stop-color:#008000;}.b{fill:url(#linearGradient5950);}</style><defs><linearGradient y2="149.7" gradientUnits="userSpaceOnUse" x2="138.1" y1="23.2" x1="34.2"><stop offset="0" class="a"/><stop offset="1" stop-color="#000"/><stop offset="1" class="a"/></linearGradient><linearGradient y2="88.3" gradientUnits="userSpaceOnUse" x2="63.7" y1="2.6" x1="81.8"><stop offset="0" stop-color="#f2f2f2"/><stop offset="1" style="stop-color:#f2f2f2;stop-opacity:0"/></linearGradient></defs><path d="m167.7 85.2a81.2 80.5 0 1 1-162.3 0 81.2 80.5 0 1 1 162.3 0z" transform="translate(-0.97328 0.64886)" class="b"/><path d="m167.7 85.2a81.2 80.5 0 1 1-162.3 0 81.2 80.5 0 1 1 162.3 0z" transform="translate(-0.97328 0.64886)" class="b"/><path d="m85.5 5.2c-38.4 0-70.6 26.5-79 62.1-1.2 4.9 1.5 9.8 6.2 11.5 11.1 4 23.6 8.1 35.3 10.5 14.2 2.9 26.1-1.6 38.6-6.8 12.5-5.2 25.6-11 42.6-10.7 8.1 0.2 15.5 1.1 22.8 2.2 3.4 0.5 6.8-0.7 9-3.3 2.2-2.6 3-6.2 1.9-9.4-10.4-32.6-41.1-56.2-77.4-56.2z" fill="url(#linearGradient6013)"/></svg>
 



