
<svg xmlns="http://www.w3.org/2000/svg" viewBox="0 0 1622.9 1622.8"><path d="M1611.3 792.6c-0.1-6.1-0.5-13.7-0.8-22.6 -0.6-8.9-1.1-19.1-2.2-30.5 -2-22.8-5.5-50.5-11.6-81.8 -1.4-7.9-3.3-15.9-5.1-24.2 -0.4-2.1-0.9-4.2-1.4-6.2 -0.5-2.1-1-4.2-1.5-6.3 -0.5-2.1-1-4.2-1.6-6.4 -0.3-1.1-0.5-2.1-0.8-3.2 -0.3-1.1-0.6-2.2-0.9-3.2 -1.2-4.3-2.4-8.7-3.6-13.1 -0.6-2.2-1.2-4.4-1.9-6.7 -0.7-2.2-1.3-4.5-2-6.7 -0.7-2.3-1.3-4.5-2-6.8 -0.7-2.3-1.5-4.5-2.2-6.8 -1.5-4.6-3-9.2-4.5-13.9 -6.4-18.6-13.6-37.7-21.9-57.2 -2.1-4.9-4.3-9.7-6.4-14.7 -2.3-4.9-4.6-9.8-6.9-14.8 -1.1-2.5-2.4-4.9-3.6-7.4 -1.2-2.5-2.5-4.9-3.7-7.4 -2.4-5-5.1-9.9-7.7-14.9 -21-39.8-46.6-80-76.9-118.6 -30.2-38.7-65-75.8-103.8-109.8 -38.8-34-81.4-64.7-126.8-90.9 -45.3-26.2-93.3-48-142.1-64.6 -48.8-16.6-98.5-28.1-147.1-34.9 -24.3-3.4-48.4-5.6-71.9-6.7 -23.6-1.2-46.7-1.1-69.1-0.3 -22.5 0.8-44.3 2.5-65.3 5.1 -2.6 0.3-5.3 0.6-7.8 0.9 -2.6 0.4-5.2 0.7-7.8 1.1 -5.1 0.7-10.3 1.4-15.3 2.3 -5 0.8-10 1.7-15 2.5 -4.9 0.9-9.8 1.9-14.6 2.8 -19.3 3.9-37.6 8.1-54.9 12.9 -8.7 2.3-17 4.9-25.1 7.3 -4.1 1.2-8 2.6-11.9 3.8 -2 0.6-3.9 1.3-5.8 1.9 -1 0.3-1.9 0.6-2.9 0.9 -0.9 0.3-1.9 0.7-2.8 1 -30.2 10.4-55.9 21.2-76.7 30.8 -10.4 4.8-19.5 9.4-27.5 13.4 -3.9 2.1-7.6 4-10.9 5.7 -3.3 1.8-6.4 3.3-9.1 4.8 -5.4 3-9.5 5.3-12.2 6.8 -2.8 1.5-4.2 2.4-4.2 2.4s-1.4 0.8-4.1 2.4c-2.7 1.6-6.8 4-12 7.2 -2.6 1.6-5.5 3.4-8.7 5.4 -3.2 2-6.7 4.2-10.4 6.6 -3.7 2.4-7.7 5.1-12 7.9 -4.2 2.9-8.6 6-13.4 9.3 -18.7 13.2-40.9 30-64.9 51 -6 5.3-12.2 10.7-18.3 16.5 -3.1 2.9-6.3 5.8-9.4 8.8 -3.1 3-6.3 6.1-9.5 9.3 -3.2 3.1-6.3 6.4-9.6 9.7 -3.2 3.3-6.5 6.6-9.7 10 -3.2 3.4-6.4 6.9-9.7 10.4 -3.2 3.6-6.4 7.2-9.7 10.9 -12.9 14.8-25.9 30.6-38.6 47.5 -12.7 17-25.1 35-37.2 54 -24.1 38-46.1 80.3-64.5 125.8 -18.4 45.5-33.2 94.3-43.2 144.9 -10 50.6-15.1 103-15.1 155.3 0 52.3 5.1 104.7 15.1 155.3 9.9 50.6 24.7 99.4 43.2 144.9 18.4 45.5 40.4 87.8 64.5 125.8 12 19 24.5 37 37.2 54 12.7 16.9 25.7 32.7 38.6 47.5 3.3 3.7 6.5 7.3 9.7 10.9 3.3 3.5 6.5 7 9.7 10.4 3.2 3.5 6.5 6.7 9.7 10 3.2 3.3 6.3 6.6 9.6 9.7 3.2 3.1 6.4 6.2 9.5 9.3 3.1 3 6.3 5.9 9.4 8.8 6.1 5.8 12.4 11.2 18.3 16.5 24 21 46.3 37.8 64.9 51 4.7 3.3 9.2 6.3 13.4 9.3 4.3 2.8 8.3 5.4 12 7.9 3.7 2.5 7.2 4.6 10.4 6.6 3.2 2 6.1 3.8 8.7 5.4 5.2 3.2 9.3 5.5 12 7.2 2.7 1.6 4.1 2.4 4.1 2.4s1.4 0.9 4.2 2.4c2.8 1.5 6.9 3.8 12.2 6.8 2.7 1.5 5.7 3.1 9.1 4.8 3.3 1.8 7 3.7 10.9 5.7 8 4 17.1 8.6 27.5 13.4 20.8 9.6 46.5 20.5 76.7 30.8 0.9 0.3 1.9 0.7 2.8 1 1 0.3 1.9 0.6 2.9 0.9 1.9 0.6 3.9 1.3 5.8 1.9 3.9 1.3 7.9 2.6 11.9 3.8 8.1 2.4 16.5 5 25.1 7.3 17.3 4.8 35.6 9 54.9 12.9 4.8 0.9 9.7 1.9 14.6 2.8 4.9 0.8 9.9 1.6 15 2.5 5 0.9 10.2 1.5 15.3 2.3 2.6 0.4 5.2 0.7 7.8 1.1 2.6 0.4 5.2 0.6 7.8 0.9 21 2.6 42.8 4.3 65.3 5.1 22.5 0.8 45.6 0.8 69.1-0.3 23.6-1.2 47.6-3.4 71.9-6.7 48.6-6.7 98.3-18.2 147.1-34.9 48.8-16.6 96.8-38.3 142.1-64.6 45.3-26.2 88-57 126.8-90.9 38.8-33.9 73.6-71.1 103.8-109.8 30.3-38.6 55.8-78.9 76.9-118.6 2.6-5 5.3-9.9 7.7-14.9 1.2-2.5 2.5-5 3.7-7.4 1.2-2.5 2.5-4.9 3.6-7.4 2.3-5 4.6-9.9 6.9-14.8 2.2-4.9 4.3-9.8 6.4-14.7 8.3-19.5 15.6-38.6 21.9-57.2 1.5-4.7 3-9.3 4.5-13.9 0.7-2.3 1.5-4.6 2.2-6.8 0.7-2.3 1.4-4.5 2-6.8 0.7-2.3 1.3-4.5 2-6.7 0.7-2.2 1.3-4.4 1.9-6.7 1.2-4.4 2.4-8.8 3.6-13.1 0.3-1.1 0.6-2.2 0.9-3.2 0.3-1.1 0.5-2.2 0.8-3.2 0.5-2.1 1-4.3 1.6-6.4 0.5-2.1 1-4.2 1.5-6.3 0.5-2.1 1-4.2 1.4-6.2 1.8-8.3 3.6-16.3 5.1-24.2 6.1-31.3 9.5-59 11.6-81.8 1.1-11.4 1.6-21.6 2.2-30.5 0.3-8.9 0.7-16.4 0.8-22.6 0.2-12.3 0.2-18.8 0.2-18.8S1611.4 804.9 1611.3 792.6zM1596.3 829.9c-0.1 6-0.5 13.4-0.8 22.2 -0.6 8.7-1 18.7-2.2 29.9 -2 22.4-5.4 49.5-11.3 80.3 -1.4 7.7-3.2 15.6-5 23.7 -0.4 2-0.9 4.1-1.4 6.1 -0.5 2-1 4.1-1.5 6.2 -0.5 2.1-1 4.2-1.5 6.3 -0.3 1.1-0.5 2.1-0.8 3.2 -0.3 1.1-0.6 2.1-0.9 3.2 -1.1 4.2-2.3 8.5-3.5 12.9 -0.6 2.2-1.2 4.3-1.9 6.5 -0.6 2.2-1.3 4.4-2 6.6 -0.7 2.2-1.3 4.4-2 6.7 -0.7 2.2-1.4 4.5-2.1 6.7 -1.5 4.5-2.9 9-4.4 13.6 -6.2 18.2-13.4 37-21.5 56.1 -2.1 4.8-4.2 9.6-6.3 14.4 -2.2 4.8-4.5 9.6-6.8 14.5 -1.1 2.4-2.3 4.8-3.5 7.3 -1.2 2.4-2.4 4.8-3.6 7.3 -2.4 4.9-5 9.7-7.5 14.6 -20.7 39-45.7 78.5-75.4 116.4 -29.7 37.9-63.8 74.4-101.9 107.7 -38 33.3-79.9 63.5-124.4 89.2 -44.5 25.8-91.5 47.1-139.4 63.4 -47.9 16.3-96.6 27.6-144.4 34.2 -23.9 3.3-47.5 5.5-70.6 6.6 -23.1 1.2-45.8 1.1-67.9 0.3 -22-0.8-43.5-2.5-64.1-5 -2.6-0.3-5.2-0.6-7.7-0.9 -2.6-0.4-5.1-0.7-7.6-1.1 -5.1-0.7-10.1-1.3-15-2.2 -4.9-0.8-9.8-1.6-14.7-2.4 -4.8-0.9-9.6-1.8-14.3-2.7 -18.9-3.8-36.9-7.9-53.8-12.7 -8.5-2.2-16.7-4.8-24.7-7.1 -4-1.2-7.9-2.5-11.7-3.8 -1.9-0.6-3.8-1.2-5.7-1.9 -0.9-0.3-1.9-0.6-2.8-0.9 -0.9-0.3-1.9-0.7-2.8-1 -29.6-10.2-54.8-20.8-75.2-30.3 -10.2-4.7-19.2-9.2-27-13.1 -3.9-2-7.4-3.9-10.7-5.6 -3.3-1.7-6.3-3.3-8.9-4.8 -5.3-2.9-9.3-5.2-12-6.7 -2.7-1.5-4.1-2.3-4.1-2.3s-1.4-0.8-4.1-2.4c-2.7-1.6-6.7-3.9-11.8-7 -2.6-1.6-5.4-3.4-8.5-5.3s-6.6-4.1-10.2-6.5c-3.6-2.4-7.6-5-11.7-7.7 -4.1-2.9-8.5-5.9-13.1-9.1 -18.3-13-40.2-29.5-63.7-50.1 -5.8-5.2-12-10.5-18-16.2 -3-2.8-6.2-5.7-9.2-8.7 -3.1-3-6.2-6-9.3-9.1 -3.2-3-6.2-6.3-9.4-9.5 -3.1-3.2-6.4-6.4-9.5-9.8 -3.1-3.4-6.3-6.8-9.5-10.2 -3.1-3.5-6.3-7.1-9.5-10.7 -12.7-14.5-25.4-30-37.9-46.6 -12.4-16.6-24.7-34.3-36.5-53 -23.6-37.3-45.2-78.8-63.3-123.5 -18.1-44.7-32.6-92.5-42.4-142.2 -9.8-49.6-14.8-101-14.8-152.4 0-51.3 5-102.7 14.8-152.4 9.8-49.7 24.3-97.5 42.4-142.2 18.1-44.7 39.7-86.2 63.3-123.5 11.8-18.7 24-36.3 36.5-53 12.5-16.6 25.2-32.1 37.9-46.6 3.2-3.6 6.4-7.2 9.5-10.7 3.2-3.5 6.4-6.9 9.5-10.2 3.1-3.4 6.3-6.6 9.5-9.8 3.2-3.2 6.2-6.4 9.4-9.5 3.1-3.1 6.2-6.1 9.3-9.1 3.1-3 6.2-5.8 9.2-8.7 6-5.7 12.1-11 18-16.2 23.6-20.6 45.4-37.1 63.7-50.1 4.6-3.2 9-6.2 13.1-9.1 4.2-2.8 8.1-5.3 11.7-7.7 3.6-2.4 7.1-4.6 10.2-6.5 3.1-2 6-3.7 8.5-5.3 5.1-3.1 9.1-5.4 11.8-7 2.7-1.6 4.1-2.4 4.1-2.4s1.4-0.8 4.1-2.3c2.7-1.5 6.7-3.8 12-6.7 2.6-1.5 5.6-3 8.9-4.8 3.3-1.7 6.9-3.6 10.7-5.6 7.8-3.9 16.8-8.4 27-13.1 20.4-9.5 45.6-20.1 75.2-30.3 0.9-0.3 1.9-0.7 2.8-1 0.9-0.3 1.9-0.6 2.8-0.9 1.9-0.6 3.8-1.2 5.7-1.9 3.8-1.2 7.7-2.6 11.7-3.8 8-2.3 16.2-4.9 24.7-7.1 16.9-4.7 34.9-8.9 53.8-12.7 4.7-0.9 9.5-1.8 14.3-2.7 4.9-0.8 9.7-1.6 14.7-2.4 4.9-0.9 10-1.5 15-2.2 2.5-0.4 5.1-0.7 7.6-1.1 2.5-0.4 5.1-0.6 7.7-0.9 20.6-2.5 42.1-4.2 64.1-5 22-0.8 44.7-0.8 67.9 0.3 23.1 1.1 46.7 3.3 70.6 6.6 47.7 6.6 96.5 17.9 144.4 34.2 47.9 16.3 95 37.6 139.4 63.4 44.5 25.7 86.4 55.9 124.4 89.2 38.1 33.3 72.2 69.8 101.9 107.7 29.7 37.9 54.8 77.4 75.4 116.4 2.6 4.9 5.2 9.7 7.5 14.6 1.2 2.4 2.4 4.9 3.6 7.3 1.2 2.4 2.4 4.8 3.5 7.3 2.3 4.9 4.5 9.7 6.8 14.5 2.1 4.8 4.2 9.6 6.3 14.4 8.1 19.1 15.3 37.9 21.5 56.1 1.5 4.6 3 9.1 4.4 13.6 0.7 2.2 1.5 4.5 2.1 6.7 0.7 2.2 1.3 4.5 2 6.7 0.7 2.2 1.3 4.4 2 6.6 0.7 2.2 1.3 4.4 1.9 6.5 1.2 4.3 2.3 8.6 3.5 12.9 0.3 1.1 0.6 2.1 0.9 3.2 0.3 1.1 0.5 2.1 0.8 3.2 0.5 2.1 1 4.2 1.5 6.3 0.5 2.1 1 4.1 1.5 6.2 0.5 2 1 4.1 1.4 6.1 1.7 8.1 3.6 16 5 23.7 6 30.8 9.4 57.9 11.3 80.3 1.1 11.2 1.6 21.2 2.2 29.9 0.3 8.7 0.7 16.1 0.8 22.2 0.2 12 0.2 18.5 0.2 18.5S1596.5 817.8 1596.3 829.9z" fill="#D10E1C"/><path d="M1597.1 793c-0.1-6-0.5-13.4-0.8-22.2 -0.6-8.7-1-18.8-2.2-29.9 -2-22.4-5.4-49.6-11.4-80.3 -1.4-7.7-3.2-15.6-5-23.7 -0.4-2-0.9-4.1-1.4-6.1 -0.5-2.1-1-4.1-1.5-6.2 -0.5-2.1-1-4.2-1.5-6.3 -0.3-1.1-0.5-2.1-0.8-3.2 -0.3-1.1-0.6-2.1-0.9-3.2 -1.1-4.2-2.3-8.5-3.5-12.9 -0.6-2.2-1.2-4.4-1.9-6.5 -0.7-2.2-1.3-4.4-2-6.6 -0.7-2.2-1.3-4.4-2-6.7 -0.7-2.2-1.4-4.5-2.1-6.7 -1.5-4.5-2.9-9-4.4-13.6 -6.2-18.3-13.4-37.1-21.5-56.2 -2.1-4.8-4.2-9.6-6.3-14.4 -2.2-4.8-4.5-9.6-6.8-14.5 -1.1-2.4-2.3-4.9-3.5-7.3 -1.2-2.4-2.4-4.9-3.6-7.3 -2.4-4.9-5-9.7-7.6-14.6 -20.7-39.1-45.7-78.6-75.5-116.5 -29.7-38-63.9-74.5-102-107.8 -38.1-33.4-80-63.5-124.5-89.3 -44.5-25.8-91.6-47.1-139.6-63.4 -48-16.3-96.7-27.6-144.5-34.2 -23.9-3.3-47.5-5.5-70.7-6.6 -23.2-1.2-45.9-1.1-67.9-0.3 -22.1 0.8-43.5 2.5-64.2 5 -2.6 0.3-5.2 0.6-7.7 0.9 -2.6 0.4-5.1 0.7-7.6 1.1 -5.1 0.7-10.1 1.3-15 2.2 -4.9 0.8-9.9 1.6-14.7 2.4 -4.8 0.9-9.6 1.8-14.4 2.7 -18.9 3.8-36.9 8-53.9 12.7 -8.5 2.2-16.7 4.8-24.7 7.1 -4 1.2-7.9 2.5-11.7 3.8 -1.9 0.6-3.8 1.2-5.7 1.9 -0.9 0.3-1.9 0.6-2.8 0.9 -0.9 0.3-1.9 0.7-2.8 1 -29.7 10.2-54.9 20.8-75.3 30.3 -10.2 4.7-19.2 9.2-27 13.1 -3.9 2-7.4 3.9-10.7 5.6 -3.3 1.7-6.3 3.3-8.9 4.8 -5.3 2.9-9.3 5.2-12 6.7 -2.7 1.5-4.1 2.3-4.1 2.3s-1.4 0.8-4.1 2.4c-2.7 1.6-6.7 3.9-11.8 7 -2.6 1.6-5.4 3.4-8.6 5.3 -3.1 2-6.6 4.1-10.2 6.5 -3.6 2.4-7.6 5-11.8 7.7 -4.1 2.9-8.5 5.9-13.1 9.1 -18.4 13-40.2 29.5-63.8 50.1 -5.8 5.2-12 10.5-18 16.2 -3 2.8-6.2 5.7-9.2 8.7 -3.1 3-6.2 6-9.3 9.1 -3.2 3-6.2 6.3-9.4 9.5 -3.1 3.2-6.4 6.4-9.5 9.9 -3.1 3.4-6.3 6.8-9.5 10.2 -3.1 3.5-6.3 7.1-9.5 10.7 -12.7 14.5-25.5 30-37.9 46.7 -12.5 16.7-24.7 34.3-36.5 53 -23.6 37.3-45.3 78.9-63.4 123.6 -18.1 44.7-32.6 92.6-42.4 142.3 -9.8 49.7-14.8 101.1-14.8 152.5 0 51.4 5 102.8 14.8 152.5 9.8 49.7 24.3 97.6 42.4 142.3 18.1 44.7 39.7 86.2 63.4 123.6 11.8 18.7 24 36.4 36.5 53 12.5 16.6 25.3 32.1 37.9 46.7 3.2 3.6 6.4 7.2 9.5 10.7 3.2 3.5 6.4 6.9 9.5 10.2 3.1 3.4 6.3 6.6 9.5 9.9 3.2 3.2 6.2 6.4 9.4 9.5 3.1 3.1 6.2 6.1 9.3 9.1 3.1 3 6.2 5.8 9.2 8.7 6 5.7 12.2 11 18 16.2 23.6 20.6 45.4 37.1 63.8 50.1 4.6 3.2 9 6.2 13.1 9.1 4.2 2.8 8.1 5.3 11.8 7.7 3.6 2.4 7.1 4.6 10.2 6.5 3.1 2 6 3.7 8.6 5.3 5.1 3.1 9.2 5.4 11.8 7 2.7 1.6 4.1 2.4 4.1 2.4s1.4 0.8 4.1 2.3c2.7 1.5 6.8 3.8 12 6.7 2.6 1.5 5.6 3 8.9 4.8 3.3 1.7 6.9 3.6 10.7 5.6 7.8 3.9 16.8 8.5 27 13.1 20.4 9.5 45.6 20.1 75.3 30.3 0.9 0.3 1.9 0.7 2.8 1 0.9 0.3 1.9 0.6 2.8 0.9 1.9 0.6 3.8 1.2 5.7 1.9 3.9 1.2 7.7 2.6 11.7 3.8 8 2.3 16.2 4.9 24.7 7.1 16.9 4.7 35 8.9 53.9 12.7 4.7 0.9 9.5 1.8 14.4 2.7 4.9 0.8 9.8 1.6 14.7 2.4 4.9 0.9 10 1.5 15 2.2 2.5 0.4 5.1 0.7 7.6 1.1 2.6 0.4 5.1 0.6 7.7 0.9 20.6 2.5 42.1 4.2 64.2 5 22.1 0.8 44.8 0.8 67.9-0.3 23.2-1.1 46.8-3.3 70.7-6.6 47.8-6.6 96.5-17.9 144.5-34.2 48-16.3 95.1-37.6 139.6-63.4 44.5-25.8 86.5-55.9 124.5-89.3 38.1-33.3 72.3-69.9 102-107.8 29.8-38 54.8-77.5 75.5-116.5 2.6-4.9 5.2-9.7 7.6-14.6 1.2-2.4 2.4-4.9 3.6-7.3 1.2-2.4 2.4-4.8 3.5-7.3 2.3-4.9 4.5-9.7 6.8-14.5 2.1-4.8 4.2-9.6 6.3-14.4 8.1-19.1 15.3-37.9 21.5-56.2 1.5-4.6 3-9.1 4.4-13.6 0.7-2.3 1.5-4.5 2.1-6.7 0.7-2.2 1.3-4.5 2-6.7 0.7-2.2 1.3-4.4 2-6.6 0.7-2.2 1.3-4.4 1.9-6.5 1.2-4.4 2.3-8.7 3.5-12.9 0.3-1.1 0.6-2.1 0.9-3.2 0.3-1.1 0.5-2.1 0.8-3.2 0.5-2.1 1-4.2 1.5-6.3 0.5-2.1 1-4.1 1.5-6.2 0.5-2 1-4.1 1.4-6.1 1.7-8.1 3.6-16 5-23.7 6-30.8 9.4-57.9 11.4-80.3 1.1-11.2 1.6-21.2 2.2-29.9 0.3-8.7 0.7-16.2 0.8-22.2 0.2-12 0.2-18.5 0.2-18.5S1597.2 805 1597.1 793zM1582.1 829.5c-0.1 5.9-0.5 13.2-0.8 21.8 -0.6 8.6-1 18.4-2.1 29.4 -2 22-5.3 48.6-11.1 78.8 -1.4 7.6-3.2 15.3-4.9 23.3 -0.4 2-0.9 4-1.4 6 -0.5 2-1 4-1.5 6.1 -0.5 2-1 4.1-1.5 6.2 -0.3 1-0.5 2.1-0.8 3.1 -0.3 1-0.6 2.1-0.8 3.1 -1.1 4.2-2.3 8.4-3.4 12.6 -0.6 2.1-1.2 4.3-1.8 6.4 -0.6 2.1-1.3 4.3-1.9 6.5 -0.6 2.2-1.3 4.4-1.9 6.5 -0.6 2.2-1.4 4.4-2.1 6.6 -1.4 4.4-2.9 8.9-4.4 13.4 -6.1 17.9-13.1 36.3-21.1 55.1 -2 4.7-4.1 9.4-6.2 14.1 -2.2 4.7-4.4 9.4-6.6 14.2 -1.1 2.4-2.3 4.8-3.5 7.1 -1.2 2.4-2.4 4.8-3.6 7.2 -2.3 4.8-4.9 9.6-7.4 14.4 -20.3 38.3-44.9 77.1-74.1 114.3 -29.1 37.3-62.7 73.1-100.1 105.8 -37.3 32.7-78.5 62.3-122.2 87.6 -43.7 25.3-89.9 46.2-136.9 62.2 -47 16-94.9 27.1-141.7 33.6 -23.4 3.2-46.6 5.4-69.3 6.5 -22.7 1.1-45 1.1-66.7 0.3 -21.7-0.8-42.7-2.4-62.9-4.9 -2.5-0.3-5.1-0.5-7.6-0.9 -2.5-0.3-5-0.7-7.5-1 -5-0.7-9.9-1.3-14.7-2.2 -4.9-0.8-9.7-1.6-14.4-2.4 -4.7-0.9-9.4-1.8-14.1-2.7 -18.6-3.7-36.2-7.8-52.9-12.4 -8.4-2.2-16.4-4.7-24.2-7 -3.9-1.2-7.7-2.5-11.5-3.7 -1.9-0.6-3.8-1.2-5.6-1.8 -0.9-0.3-1.9-0.6-2.8-0.9 -0.9-0.3-1.8-0.6-2.7-1 -29.1-10-53.8-20.4-73.9-29.7 -10-4.6-18.8-9.1-26.5-12.9 -3.8-2-7.3-3.8-10.5-5.5 -3.2-1.7-6.2-3.2-8.7-4.7 -5.2-2.9-9.1-5.1-11.8-6.6 -2.7-1.5-4-2.3-4-2.3s-1.4-0.8-4-2.4c-2.6-1.6-6.6-3.8-11.6-6.9 -2.5-1.6-5.3-3.3-8.4-5.2 -3.1-1.9-6.5-4-10-6.4 -3.6-2.4-7.4-4.9-11.5-7.6 -4-2.8-8.3-5.8-12.9-8.9 -18-12.8-39.4-28.9-62.6-49.2 -5.7-5.1-11.7-10.3-17.7-15.9 -3-2.8-6-5.6-9.1-8.5 -3-2.9-6-5.9-9.1-8.9 -3.1-3-6.1-6.2-9.2-9.3 -3.1-3.2-6.3-6.3-9.3-9.7 -3.1-3.3-6.2-6.7-9.4-10.1 -3.1-3.5-6.2-7-9.3-10.5 -12.4-14.2-25-29.5-37.2-45.8 -12.2-16.3-24.2-33.7-35.8-52 -23.2-36.6-44.4-77.4-62.1-121.2 -17.8-43.8-32-90.8-41.6-139.6 -9.6-48.7-14.5-99.2-14.6-149.6 0-50.4 5-100.9 14.6-149.6 9.6-48.7 23.8-95.8 41.6-139.6 17.8-43.9 39-84.6 62.1-121.2 11.6-18.3 23.6-35.7 35.8-52 12.2-16.3 24.8-31.5 37.2-45.8 3.1-3.5 6.3-7 9.3-10.5 3.2-3.4 6.3-6.7 9.4-10.1 3.1-3.3 6.2-6.5 9.3-9.7 3.1-3.1 6.1-6.3 9.2-9.3 3.1-3 6.1-6 9.1-8.9 3-2.9 6.1-5.7 9.1-8.5 5.9-5.6 11.9-10.8 17.7-15.9 23.1-20.2 44.6-36.4 62.6-49.2 4.5-3.1 8.8-6.1 12.9-8.9 4.1-2.7 8-5.2 11.5-7.6 3.6-2.4 6.9-4.5 10-6.4 3.1-1.9 5.9-3.7 8.4-5.2 5.1-3.1 9-5.3 11.6-6.9 2.6-1.6 4-2.4 4-2.4s1.3-0.8 4-2.3c2.7-1.5 6.6-3.7 11.8-6.6 2.6-1.5 5.5-3 8.7-4.7 3.2-1.7 6.7-3.5 10.5-5.5 7.7-3.8 16.5-8.3 26.5-12.9 20-9.3 44.8-19.7 73.9-29.7 0.9-0.3 1.8-0.6 2.7-1 0.9-0.3 1.8-0.6 2.8-0.9 1.9-0.6 3.7-1.2 5.6-1.8 3.8-1.2 7.6-2.5 11.5-3.7 7.8-2.3 15.9-4.8 24.2-7 16.6-4.6 34.3-8.7 52.9-12.4 4.6-0.9 9.3-1.8 14.1-2.7 4.8-0.8 9.6-1.6 14.4-2.4 4.8-0.9 9.8-1.5 14.7-2.2 2.5-0.3 5-0.7 7.5-1 2.5-0.4 5-0.6 7.6-0.9 20.2-2.5 41.3-4.1 62.9-4.9 21.7-0.8 43.9-0.8 66.7 0.3 22.7 1.1 45.9 3.2 69.3 6.5 46.9 6.5 94.7 17.6 141.7 33.6 47 16 93.2 36.9 136.9 62.2 43.7 25.3 84.8 54.9 122.2 87.6 37.4 32.7 70.9 68.5 100.1 105.8 29.2 37.2 53.8 76 74.1 114.3 2.5 4.8 5.1 9.5 7.4 14.4 1.2 2.4 2.4 4.8 3.6 7.2 1.2 2.4 2.4 4.7 3.5 7.1 2.2 4.8 4.4 9.5 6.6 14.2 2.1 4.8 4.1 9.5 6.2 14.1 8 18.8 15 37.2 21.1 55.1 1.5 4.5 2.9 9 4.4 13.4 0.7 2.2 1.5 4.4 2.1 6.6 0.7 2.2 1.3 4.4 1.9 6.5 0.6 2.2 1.3 4.3 1.9 6.5 0.6 2.1 1.3 4.3 1.8 6.4 1.2 4.3 2.3 8.5 3.4 12.6 0.3 1 0.6 2.1 0.8 3.1 0.3 1 0.5 2.1 0.8 3.1 0.5 2.1 1 4.1 1.5 6.2 0.5 2 1 4.1 1.5 6.1 0.5 2 1 4 1.4 6 1.7 8 3.5 15.7 4.9 23.3 5.9 30.2 9.2 56.8 11.1 78.8 1.1 11 1.5 20.8 2.1 29.4 0.3 8.6 0.7 15.8 0.8 21.8 0.1 11.8 0.2 18.1 0.2 18.1S1582.2 817.7 1582.1 829.5z" fill="#FF5A00"/><path d="M1582.1 793.3c-0.1-5.9-0.5-13.2-0.8-21.8 -0.6-8.6-1-18.4-2.1-29.4 -2-22-5.3-48.6-11.1-78.8 -1.4-7.6-3.2-15.3-4.9-23.3 -0.4-2-0.9-4-1.4-6 -0.5-2-1-4-1.5-6.1 -0.5-2-1-4.1-1.5-6.2 -0.3-1-0.5-2.1-0.8-3.1 -0.3-1-0.6-2.1-0.8-3.1 -1.1-4.2-2.3-8.4-3.4-12.6 -0.6-2.1-1.2-4.3-1.8-6.4 -0.6-2.1-1.3-4.3-1.9-6.5 -0.6-2.2-1.3-4.4-1.9-6.5 -0.6-2.2-1.4-4.4-2.1-6.6 -1.4-4.4-2.9-8.9-4.4-13.4 -6.1-17.9-13.1-36.3-21.1-55.1 -2-4.7-4.1-9.4-6.2-14.1 -2.2-4.7-4.4-9.4-6.6-14.2 -1.1-2.4-2.3-4.8-3.5-7.1 -1.2-2.4-2.4-4.8-3.6-7.2 -2.3-4.8-4.9-9.6-7.4-14.4 -20.3-38.3-44.9-77.1-74.1-114.3 -29.1-37.3-62.7-73.1-100.1-105.8 -37.3-32.7-78.5-62.3-122.2-87.6 -43.7-25.3-89.9-46.2-136.9-62.2 -47-16-94.9-27.1-141.7-33.6 -23.4-3.2-46.6-5.4-69.3-6.5 -22.7-1.1-45-1.1-66.7-0.3 -21.7 0.8-42.7 2.4-62.9 4.9 -2.5 0.3-5.1 0.5-7.6 0.9 -2.5 0.4-5 0.7-7.5 1 -5 0.7-9.9 1.3-14.7 2.2 -4.9 0.8-9.7 1.6-14.4 2.4 -4.7 0.9-9.4 1.8-14.1 2.7 -18.6 3.7-36.2 7.8-52.9 12.4 -8.4 2.2-16.4 4.7-24.2 7 -3.9 1.2-7.7 2.5-11.5 3.7 -1.9 0.6-3.8 1.2-5.6 1.8 -0.9 0.3-1.9 0.6-2.8 0.9 -0.9 0.3-1.8 0.6-2.7 1 -29.1 10-53.8 20.4-73.9 29.7 -10 4.6-18.8 9.1-26.5 12.9 -3.8 2-7.3 3.8-10.5 5.5 -3.2 1.7-6.2 3.2-8.7 4.7 -5.2 2.9-9.1 5.1-11.8 6.6 -2.7 1.5-4 2.3-4 2.3s-1.4 0.8-4 2.4c-2.6 1.6-6.6 3.8-11.6 6.9 -2.5 1.6-5.3 3.3-8.4 5.2 -3.1 1.9-6.5 4-10 6.4 -3.6 2.4-7.4 4.9-11.5 7.6 -4 2.8-8.3 5.8-12.9 8.9 -18 12.8-39.4 28.9-62.6 49.2 -5.7 5.1-11.7 10.3-17.7 15.9 -3 2.8-6 5.6-9.1 8.5 -3 2.9-6 5.9-9.1 8.9 -3.1 3-6.1 6.2-9.2 9.3 -3.1 3.2-6.3 6.3-9.3 9.7 -3.1 3.3-6.2 6.7-9.4 10.1 -3.1 3.5-6.2 7-9.3 10.5 -12.4 14.2-25 29.5-37.2 45.8 -12.2 16.3-24.2 33.7-35.8 52 -23.2 36.6-44.4 77.4-62.1 121.2 -17.8 43.8-32 90.8-41.6 139.6 -9.6 48.7-14.5 99.2-14.6 149.6 0 50.4 5 100.9 14.6 149.6 9.6 48.7 23.8 95.8 41.6 139.6 17.8 43.9 39 84.6 62.1 121.2 11.6 18.3 23.6 35.7 35.8 52 12.2 16.3 24.8 31.5 37.2 45.8 3.1 3.5 6.3 7 9.3 10.5 3.2 3.4 6.3 6.7 9.4 10.1 3.1 3.3 6.2 6.5 9.3 9.7 3.1 3.1 6.1 6.3 9.2 9.3 3.1 3 6.1 6 9.1 8.9 3 2.9 6.1 5.7 9.1 8.5 5.9 5.6 11.9 10.8 17.7 15.9 23.1 20.2 44.6 36.4 62.6 49.2 4.5 3.1 8.8 6.1 12.9 8.9 4.1 2.7 8 5.2 11.5 7.6 3.6 2.4 6.9 4.5 10 6.4 3.1 1.9 5.9 3.7 8.4 5.2 5.1 3.1 9 5.3 11.6 6.9 2.6 1.6 4 2.4 4 2.4s1.3 0.8 4 2.3c2.7 1.5 6.6 3.7 11.8 6.6 2.6 1.5 5.5 3 8.7 4.7 3.2 1.7 6.7 3.5 10.5 5.5 7.7 3.8 16.5 8.3 26.5 12.9 20 9.3 44.8 19.7 73.9 29.7 0.9 0.3 1.8 0.6 2.7 1 0.9 0.3 1.8 0.6 2.8 0.9 1.9 0.6 3.7 1.2 5.6 1.8 3.8 1.2 7.6 2.5 11.5 3.7 7.8 2.3 15.9 4.8 24.2 7 16.6 4.6 34.3 8.7 52.9 12.4 4.6 0.9 9.3 1.8 14.1 2.7 4.8 0.8 9.6 1.6 14.4 2.4 4.8 0.9 9.8 1.5 14.7 2.2 2.5 0.3 5 0.7 7.5 1 2.5 0.4 5 0.6 7.6 0.9 20.2 2.5 41.3 4.1 62.9 4.9 21.7 0.8 43.9 0.8 66.7-0.3 22.7-1.1 45.9-3.2 69.3-6.5 46.9-6.5 94.7-17.6 141.7-33.6 47-16 93.2-36.9 136.9-62.2 43.7-25.3 84.8-54.9 122.2-87.6 37.4-32.7 70.9-68.5 100.1-105.8 29.2-37.2 53.8-76 74.1-114.3 2.5-4.8 5.1-9.5 7.4-14.4 1.2-2.4 2.4-4.8 3.6-7.2 1.2-2.4 2.4-4.7 3.5-7.1 2.2-4.8 4.4-9.5 6.6-14.2 2.1-4.8 4.1-9.5 6.2-14.1 8-18.8 15-37.2 21.1-55.1 1.5-4.5 2.9-9 4.4-13.4 0.7-2.2 1.5-4.4 2.1-6.6 0.7-2.2 1.3-4.4 1.9-6.5 0.6-2.2 1.3-4.3 1.9-6.5 0.6-2.1 1.3-4.3 1.8-6.4 1.2-4.3 2.3-8.5 3.4-12.6 0.3-1 0.6-2.1 0.8-3.1 0.3-1 0.5-2.1 0.8-3.1 0.5-2.1 1-4.1 1.5-6.2 0.5-2 1-4.1 1.5-6.1 0.5-2 1-4 1.4-6 1.7-8 3.5-15.7 4.9-23.3 5.9-30.2 9.2-56.8 11.1-78.8 1.1-11 1.5-20.8 2.1-29.4 0.3-8.6 0.7-15.8 0.8-21.8 0.1-11.8 0.2-18.1 0.2-18.1S1582.2 805.1 1582.1 793.3zM1567.1 829.2c-0.1 5.8-0.5 12.9-0.8 21.3 -0.6 8.4-1 18-2.1 28.8 -1.9 21.6-5.2 47.7-10.9 77.3 -1.3 7.4-3.1 15-4.8 22.8 -0.4 2-0.9 3.9-1.4 5.9 -0.5 2-1 4-1.5 6 -0.5 2-1 4-1.5 6 -0.2 1-0.5 2-0.7 3.1 -0.3 1-0.5 2-0.8 3.1 -1.1 4.1-2.2 8.2-3.4 12.4 -0.5 2.1-1.2 4.2-1.8 6.3 -0.6 2.1-1.3 4.2-1.9 6.3 -0.6 2.1-1.3 4.3-1.9 6.4 -0.6 2.2-1.4 4.3-2.1 6.5 -1.4 4.3-2.8 8.7-4.3 13.1 -6 17.6-12.9 35.6-20.7 54 -2 4.6-4 9.2-6.1 13.9 -2.1 4.6-4.3 9.3-6.5 13.9 -1.1 2.4-2.2 4.7-3.4 7 -1.2 2.3-2.3 4.7-3.5 7 -2.3 4.7-4.8 9.4-7.3 14.1 -19.9 37.6-44 75.6-72.6 112.1 -28.6 36.5-61.5 71.7-98.1 103.8 -36.6 32.1-77 61.1-119.8 85.9 -42.8 24.8-88.1 45.3-134.2 61 -46.1 15.7-93 26.6-139 32.9 -23 3.2-45.7 5.3-68 6.4 -22.3 1.1-44.2 1.1-65.4 0.3 -21.2-0.8-41.9-2.4-61.7-4.8 -2.5-0.3-5-0.5-7.4-0.9 -2.5-0.3-4.9-0.7-7.3-1 -4.9-0.7-9.7-1.3-14.5-2.1 -4.8-0.8-9.5-1.6-14.1-2.3 -4.6-0.9-9.3-1.8-13.8-2.6 -18.2-3.7-35.5-7.6-51.8-12.2 -8.2-2.1-16-4.6-23.7-6.9 -3.8-1.2-7.6-2.4-11.3-3.6 -1.8-0.6-3.7-1.2-5.5-1.8 -0.9-0.3-1.8-0.6-2.7-0.9 -0.9-0.3-1.8-0.6-2.7-0.9 -28.5-9.8-52.8-20-72.4-29.1 -9.9-4.5-18.5-8.9-26-12.6 -3.7-2-7.2-3.8-10.3-5.4 -3.1-1.7-6-3.1-8.6-4.6 -5.1-2.8-8.9-5-11.6-6.5 -2.6-1.4-3.9-2.3-3.9-2.3s-1.3-0.8-3.9-2.3c-2.6-1.5-6.4-3.8-11.4-6.8 -2.5-1.5-5.2-3.2-8.2-5.1 -3-1.9-6.3-3.9-9.8-6.3 -3.5-2.3-7.3-4.8-11.3-7.4 -4-2.7-8.2-5.7-12.6-8.7 -17.7-12.5-38.7-28.4-61.4-48.2 -5.6-5-11.5-10.1-17.3-15.6 -2.9-2.7-5.9-5.5-8.9-8.3 -2.9-2.9-5.9-5.8-9-8.7 -3.1-2.9-6-6-9-9.1 -3-3.1-6.1-6.2-9.1-9.5 -3-3.2-6.1-6.5-9.2-9.9 -3-3.4-6.1-6.8-9.1-10.3 -12.2-14-24.5-28.9-36.5-44.9 -12-16-23.8-33-35.1-51 -22.7-35.9-43.5-75.9-60.9-118.9 -17.4-43-31.4-89.1-40.8-136.9 -9.4-47.8-14.3-97.3-14.3-146.7 0-49.5 4.9-98.9 14.3-146.7 9.4-47.8 23.4-93.9 40.8-136.9 17.4-43 38.2-82.9 60.9-118.9 11.3-18 23.1-35 35.1-51 12-16 24.3-30.9 36.5-44.9 3.1-3.5 6.1-6.9 9.1-10.3 3.1-3.3 6.2-6.6 9.2-9.9 3-3.3 6.1-6.4 9.1-9.5 3-3.1 6-6.2 9-9.1 3-3 6-5.9 9-8.7 3-2.9 6-5.6 8.9-8.3 5.8-5.5 11.7-10.6 17.3-15.6 22.7-19.9 43.7-35.7 61.4-48.2 4.4-3.1 8.7-6 12.6-8.7 4-2.7 7.8-5.1 11.3-7.4 3.5-2.3 6.8-4.4 9.8-6.3 3-1.9 5.8-3.6 8.2-5.1 5-3 8.8-5.2 11.4-6.8 2.6-1.5 3.9-2.3 3.9-2.3s1.3-0.8 3.9-2.3c2.6-1.5 6.5-3.6 11.6-6.5 2.5-1.4 5.4-2.9 8.6-4.6 3.2-1.7 6.6-3.5 10.3-5.4 7.5-3.7 16.1-8.1 26-12.6 19.6-9.1 43.9-19.3 72.4-29.1 0.9-0.3 1.8-0.6 2.7-0.9 0.9-0.3 1.8-0.6 2.7-0.9 1.8-0.6 3.7-1.2 5.5-1.8 3.7-1.2 7.4-2.5 11.3-3.6 7.7-2.3 15.5-4.7 23.7-6.9 16.3-4.5 33.6-8.5 51.8-12.2 4.6-0.9 9.2-1.8 13.8-2.6 4.7-0.8 9.4-1.6 14.1-2.3 4.8-0.8 9.6-1.4 14.5-2.1 2.4-0.3 4.9-0.7 7.3-1 2.5-0.4 4.9-0.6 7.4-0.9 19.9-2.4 40.5-4 61.7-4.8 21.2-0.8 43.1-0.8 65.4 0.3 22.3 1.1 45 3.2 68 6.4 45.9 6.3 92.9 17.2 139 32.9 46.1 15.7 91.4 36.2 134.2 61 42.8 24.8 83.2 53.8 119.8 85.9 36.6 32.1 69.6 67.2 98.1 103.8 28.6 36.5 52.7 74.5 72.6 112.1 2.5 4.7 5 9.4 7.3 14.1 1.2 2.3 2.3 4.7 3.5 7 1.2 2.3 2.3 4.6 3.4 7 2.2 4.7 4.4 9.3 6.5 13.9 2 4.7 4.1 9.3 6.1 13.9 7.8 18.4 14.7 36.5 20.7 54 1.4 4.4 2.9 8.8 4.3 13.1 0.7 2.2 1.4 4.3 2.1 6.5 0.6 2.2 1.3 4.3 1.9 6.4 0.6 2.1 1.3 4.2 1.9 6.3 0.6 2.1 1.3 4.2 1.8 6.3 1.1 4.2 2.3 8.3 3.4 12.4 0.3 1 0.6 2 0.8 3.1 0.2 1 0.5 2 0.7 3.1 0.5 2 1 4 1.5 6 0.5 2 1 4 1.5 6 0.5 2 1 3.9 1.4 5.9 1.7 7.8 3.5 15.4 4.8 22.8 5.8 29.6 9 55.7 10.9 77.3 1.1 10.8 1.5 20.4 2.1 28.8 0.3 8.4 0.6 15.5 0.8 21.3 0.1 11.6 0.2 17.8 0.2 17.8S1567.3 817.6 1567.1 829.2z" fill="#FDE000"/><path d="M1567.1 793.6c-0.1-5.8-0.5-12.9-0.8-21.3 -0.6-8.4-1-18-2.1-28.8 -1.9-21.6-5.2-47.7-10.9-77.3 -1.3-7.4-3.1-15-4.8-22.8 -0.4-2-0.9-3.9-1.4-5.9 -0.5-2-1-4-1.5-6 -0.5-2-1-4-1.5-6 -0.2-1-0.5-2-0.7-3.1 -0.3-1-0.5-2-0.8-3.1 -1.1-4.1-2.2-8.2-3.4-12.4 -0.5-2.1-1.2-4.2-1.8-6.3 -0.6-2.1-1.3-4.2-1.9-6.3 -0.6-2.1-1.3-4.3-1.9-6.4 -0.6-2.2-1.4-4.3-2.1-6.5 -1.4-4.3-2.8-8.7-4.3-13.1 -6-17.6-12.9-35.6-20.7-54 -2-4.6-4-9.2-6.1-13.9 -2.1-4.6-4.3-9.3-6.5-13.9 -1.1-2.4-2.2-4.7-3.4-7 -1.2-2.3-2.3-4.7-3.5-7 -2.3-4.7-4.8-9.4-7.3-14.1 -19.9-37.6-44-75.6-72.6-112.1 -28.6-36.5-61.5-71.7-98.1-103.8 -36.6-32.1-77-61.1-119.8-85.9 -42.8-24.8-88.1-45.3-134.2-61 -46.1-15.7-93-26.6-139-32.9 -23-3.2-45.7-5.3-68-6.4 -22.3-1.1-44.2-1.1-65.4-0.3 -21.2 0.8-41.9 2.4-61.7 4.8 -2.5 0.3-5 0.5-7.4 0.9 -2.5 0.3-4.9 0.7-7.3 1 -4.9 0.7-9.7 1.3-14.5 2.1 -4.8 0.8-9.5 1.6-14.1 2.3 -4.6 0.9-9.3 1.8-13.8 2.6 -18.2 3.7-35.5 7.6-51.8 12.2 -8.2 2.1-16 4.6-23.7 6.9 -3.8 1.2-7.6 2.4-11.3 3.6 -1.8 0.6-3.7 1.2-5.5 1.8 -0.9 0.3-1.8 0.6-2.7 0.9 -0.9 0.3-1.8 0.6-2.7 0.9 -28.5 9.8-52.8 20-72.4 29.1 -9.9 4.5-18.5 8.9-26 12.6 -3.7 2-7.2 3.8-10.3 5.4 -3.1 1.7-6 3.1-8.6 4.6 -5.1 2.8-8.9 5-11.6 6.5 -2.6 1.4-3.9 2.3-3.9 2.3s-1.3 0.8-3.9 2.3c-2.6 1.5-6.4 3.8-11.4 6.8 -2.5 1.5-5.2 3.2-8.2 5.1 -3 1.9-6.3 3.9-9.8 6.3 -3.5 2.3-7.3 4.8-11.3 7.4 -4 2.7-8.2 5.7-12.6 8.7 -17.7 12.5-38.7 28.4-61.4 48.2 -5.6 5-11.5 10.1-17.3 15.6 -2.9 2.7-5.9 5.5-8.9 8.3 -2.9 2.9-5.9 5.8-9 8.7 -3.1 2.9-6 6-9 9.1 -3 3.1-6.1 6.2-9.1 9.5 -3 3.2-6.1 6.5-9.2 9.9 -3 3.4-6.1 6.8-9.1 10.3 -12.2 14-24.5 28.9-36.5 44.9 -12 16-23.8 33-35.1 51 -22.7 35.9-43.5 75.9-60.9 118.9 -17.4 43-31.4 89.1-40.8 136.9 -9.4 47.8-14.3 97.3-14.3 146.7 0 49.5 4.9 98.9 14.3 146.7 9.4 47.8 23.4 93.9 40.8 136.9 17.4 43 38.2 82.9 60.9 118.9 11.3 18 23.1 35 35.1 51 12 16 24.3 30.9 36.5 44.9 3.1 3.5 6.1 6.9 9.1 10.3 3.1 3.3 6.2 6.6 9.2 9.9 3 3.3 6.1 6.4 9.1 9.5 3 3.1 6 6.2 9 9.1 3 3 6 5.9 9 8.7 3 2.9 6 5.6 8.9 8.3 5.8 5.5 11.7 10.6 17.3 15.6 22.7 19.9 43.7 35.7 61.4 48.2 4.4 3.1 8.7 6 12.6 8.7 4 2.7 7.8 5.1 11.3 7.4 3.5 2.3 6.8 4.4 9.8 6.3 3 1.9 5.8 3.6 8.2 5.1 5 3 8.8 5.2 11.4 6.8 2.6 1.5 3.9 2.3 3.9 2.3s1.3 0.8 3.9 2.3c2.6 1.5 6.5 3.6 11.6 6.5 2.5 1.4 5.4 2.9 8.6 4.6 3.2 1.7 6.6 3.5 10.3 5.4 7.5 3.7 16.1 8.1 26 12.6 19.6 9.1 43.9 19.3 72.4 29.1 0.9 0.3 1.8 0.6 2.7 0.9 0.9 0.3 1.8 0.6 2.7 0.9 1.8 0.6 3.7 1.2 5.5 1.8 3.7 1.2 7.4 2.5 11.3 3.6 7.7 2.3 15.5 4.7 23.7 6.9 16.3 4.5 33.6 8.5 51.8 12.2 4.6 0.9 9.2 1.8 13.8 2.6 4.7 0.8 9.4 1.6 14.1 2.3 4.8 0.8 9.6 1.4 14.5 2.1 2.4 0.3 4.9 0.7 7.3 1 2.5 0.4 4.9 0.6 7.4 0.9 19.9 2.4 40.5 4 61.7 4.8 21.2 0.8 43.1 0.8 65.4-0.3 22.3-1.1 45-3.2 68-6.4 45.9-6.3 92.9-17.2 139-32.9 46.1-15.7 91.4-36.2 134.2-61 42.8-24.8 83.2-53.8 119.8-85.9 36.6-32.1 69.6-67.2 98.1-103.8 28.6-36.5 52.7-74.5 72.6-112.1 2.5-4.7 5-9.4 7.3-14.1 1.2-2.3 2.3-4.7 3.5-7 1.2-2.3 2.3-4.6 3.4-7 2.2-4.7 4.4-9.3 6.5-13.9 2-4.7 4.1-9.3 6.1-13.9 7.8-18.4 14.7-36.5 20.7-54 1.4-4.4 2.9-8.8 4.3-13.1 0.7-2.2 1.4-4.3 2.1-6.5 0.6-2.2 1.3-4.3 1.9-6.4 0.6-2.1 1.3-4.2 1.9-6.3 0.6-2.1 1.3-4.2 1.8-6.3 1.1-4.2 2.3-8.3 3.4-12.4 0.3-1 0.6-2 0.8-3.1 0.2-1 0.5-2 0.7-3.1 0.5-2 1-4 1.5-6 0.5-2 1-4 1.5-6 0.5-2 1-3.9 1.4-5.9 1.7-7.8 3.5-15.4 4.8-22.8 5.8-29.6 9-55.7 10.9-77.3 1.1-10.8 1.5-20.4 2.1-28.8 0.3-8.4 0.6-15.5 0.8-21.3 0.1-11.6 0.2-17.8 0.2-17.8S1567.3 805.2 1567.1 793.6zM1552.2 828.9c-0.1 5.7-0.5 12.7-0.8 20.9 -0.6 8.2-1 17.7-2 28.3 -1.9 21.1-5.1 46.7-10.7 75.7 -1.3 7.3-3 14.7-4.7 22.4 -0.4 1.9-0.9 3.8-1.3 5.8 -0.5 1.9-0.9 3.9-1.4 5.8 -0.5 2-1 3.9-1.4 5.9 -0.2 1-0.5 2-0.7 3 -0.3 1-0.5 2-0.8 3 -1.1 4-2.2 8.1-3.3 12.2 -0.5 2.1-1.2 4.1-1.8 6.2 -0.6 2.1-1.2 4.1-1.9 6.2 -0.6 2.1-1.2 4.2-1.9 6.3 -0.6 2.1-1.3 4.2-2 6.3 -1.4 4.2-2.8 8.5-4.2 12.8 -5.9 17.2-12.6 34.9-20.3 53 -2 4.5-3.9 9-5.9 13.6 -2.1 4.5-4.2 9.1-6.4 13.7 -1 2.3-2.2 4.6-3.3 6.9 -1.1 2.3-2.3 4.6-3.4 6.9 -2.2 4.6-4.7 9.2-7.1 13.8 -19.5 36.8-43.1 74.1-71.2 109.9 -28 35.8-60.3 70.3-96.2 101.7 -35.9 31.5-75.5 59.9-117.4 84.2 -42 24.3-86.4 44.4-131.6 59.8 -45.2 15.4-91.2 26-136.2 32.3 -22.5 3.1-44.8 5.2-66.7 6.2 -21.9 1.1-43.3 1.1-64.1 0.3 -20.8-0.8-41.1-2.3-60.5-4.7 -2.4-0.3-4.9-0.5-7.3-0.9 -2.4-0.3-4.8-0.7-7.2-1 -4.8-0.7-9.5-1.3-14.2-2.1 -4.7-0.8-9.3-1.5-13.9-2.3 -4.6-0.9-9.1-1.7-13.5-2.6 -17.8-3.6-34.8-7.5-50.8-11.9 -8-2.1-15.7-4.5-23.3-6.7 -3.8-1.1-7.4-2.4-11.1-3.5 -1.8-0.6-3.6-1.2-5.4-1.8 -0.9-0.3-1.8-0.6-2.7-0.9 -0.9-0.3-1.8-0.6-2.6-0.9 -27.9-9.6-51.7-19.6-71-28.6 -9.7-4.4-18.1-8.7-25.5-12.4 -3.6-1.9-7-3.7-10.1-5.3 -3.1-1.6-5.9-3.1-8.4-4.5 -5-2.8-8.8-4.9-11.3-6.3 -2.6-1.4-3.9-2.2-3.9-2.2s-1.3-0.8-3.8-2.3c-2.5-1.5-6.3-3.7-11.2-6.6 -2.4-1.5-5.1-3.2-8.1-5 -3-1.8-6.2-3.8-9.6-6.1 -3.4-2.3-7.1-4.7-11.1-7.3 -3.9-2.7-8-5.6-12.4-8.6 -17.3-12.3-37.9-27.8-60.2-47.3 -5.5-4.9-11.3-9.9-17-15.3 -2.9-2.7-5.8-5.4-8.7-8.2 -2.9-2.8-5.8-5.7-8.8-8.6 -3-2.9-5.9-5.9-8.9-8.9 -3-3.1-6-6.1-8.9-9.3 -3-3.2-6-6.4-9-9.7 -3-3.3-5.9-6.7-9-10.1 -12-13.7-24-28.3-35.8-44 -11.7-15.7-23.3-32.4-34.4-50 -22.3-35.2-42.7-74.4-59.7-116.5 -17.1-42.1-30.8-87.3-40-134.1 -9.2-46.8-14-95.3-14-143.8 0-48.5 4.8-97 14-143.8 9.2-46.8 22.9-92 40-134.1 17.1-42.1 37.4-81.3 59.7-116.5 11.1-17.6 22.7-34.3 34.4-50 11.8-15.7 23.8-30.3 35.8-44 3-3.4 6-6.8 9-10.1 3-3.3 6-6.5 9-9.7 2.9-3.2 6-6.2 8.9-9.3 3-3 5.9-6.1 8.9-8.9 3-2.9 5.9-5.8 8.8-8.6 2.9-2.8 5.9-5.5 8.7-8.2 5.7-5.4 11.5-10.4 17-15.3 22.3-19.5 42.9-35 60.2-47.3 4.4-3 8.5-5.9 12.4-8.6 3.9-2.6 7.6-5 11.1-7.3 3.4-2.3 6.7-4.3 9.6-6.1 3-1.8 5.7-3.5 8.1-5 4.9-3 8.6-5.1 11.2-6.6 2.5-1.5 3.8-2.3 3.8-2.3s1.3-0.8 3.9-2.2c2.6-1.4 6.4-3.6 11.3-6.3 2.5-1.4 5.3-2.8 8.4-4.5 3.1-1.6 6.5-3.4 10.1-5.3 7.4-3.7 15.8-8 25.5-12.4 19.2-8.9 43-18.9 71-28.6 0.9-0.3 1.7-0.6 2.6-0.9 0.9-0.3 1.8-0.6 2.7-0.9 1.8-0.6 3.6-1.2 5.4-1.8 3.6-1.2 7.3-2.4 11.1-3.5 7.5-2.2 15.2-4.6 23.3-6.7 16-4.5 33-8.4 50.8-11.9 4.5-0.9 9-1.7 13.5-2.6 4.6-0.8 9.2-1.5 13.9-2.3 4.7-0.8 9.4-1.4 14.2-2.1 2.4-0.3 4.8-0.7 7.2-1 2.4-0.3 4.8-0.6 7.3-0.9 19.5-2.4 39.7-3.9 60.5-4.7 20.8-0.7 42.3-0.8 64.1 0.3 21.9 1.1 44.1 3.1 66.7 6.2 45 6.2 91 16.9 136.2 32.3 45.2 15.4 89.6 35.5 131.6 59.8 42 24.3 81.5 52.8 117.4 84.2 35.9 31.5 68.2 65.9 96.2 101.7 28.1 35.8 51.7 73.1 71.2 109.9 2.4 4.6 4.9 9.2 7.1 13.8 1.1 2.3 2.3 4.6 3.4 6.9 1.1 2.3 2.3 4.6 3.3 6.9 2.1 4.6 4.3 9.1 6.4 13.7 2 4.6 4 9.1 5.9 13.6 7.7 18 14.4 35.8 20.3 53 1.4 4.3 2.8 8.6 4.2 12.8 0.7 2.1 1.4 4.2 2 6.3 0.6 2.1 1.3 4.2 1.9 6.3 0.6 2.1 1.2 4.2 1.9 6.2 0.6 2.1 1.2 4.1 1.8 6.2 1.1 4.1 2.2 8.2 3.3 12.2 0.3 1 0.5 2 0.8 3 0.2 1 0.5 2 0.7 3 0.5 2 1 4 1.4 5.9 0.5 2 1 3.9 1.4 5.8 0.5 1.9 0.9 3.9 1.3 5.8 1.6 7.7 3.4 15.1 4.7 22.4 5.6 29 8.8 54.6 10.7 75.7 1.1 10.6 1.5 20 2 28.3 0.3 8.2 0.6 15.2 0.8 20.9 0.1 11.4 0.2 17.4 0.2 17.4S1552.3 817.5 1552.2 828.9z" fill="#019A4A"/><path d="M1552.2 794c-0.1-5.7-0.5-12.7-0.8-20.9 -0.6-8.2-1-17.7-2-28.3 -1.9-21.1-5.1-46.7-10.7-75.7 -1.3-7.3-3-14.7-4.7-22.4 -0.4-1.9-0.9-3.8-1.3-5.8 -0.5-1.9-0.9-3.9-1.4-5.8 -0.5-2-1-3.9-1.4-5.9 -0.2-1-0.5-2-0.7-3 -0.3-1-0.5-2-0.8-3 -1.1-4-2.2-8.1-3.3-12.2 -0.5-2.1-1.2-4.1-1.8-6.2 -0.6-2.1-1.2-4.1-1.9-6.2 -0.6-2.1-1.2-4.2-1.9-6.3 -0.6-2.1-1.3-4.2-2-6.3 -1.4-4.2-2.8-8.5-4.2-12.8 -5.9-17.2-12.6-34.9-20.3-53 -2-4.5-3.9-9-5.9-13.6 -2.1-4.5-4.2-9.1-6.4-13.7 -1-2.3-2.2-4.6-3.3-6.9 -1.1-2.3-2.3-4.6-3.4-6.9 -2.2-4.6-4.7-9.2-7.1-13.8 -19.5-36.8-43.1-74.1-71.2-109.9 -28-35.8-60.3-70.3-96.2-101.7 -35.9-31.5-75.5-59.9-117.4-84.2 -42-24.3-86.4-44.4-131.6-59.8 -45.2-15.4-91.2-26-136.2-32.3 -22.5-3.1-44.8-5.2-66.7-6.2 -21.9-1.1-43.3-1.1-64.1-0.3 -20.8 0.8-41.1 2.3-60.5 4.7 -2.4 0.3-4.9 0.5-7.3 0.9 -2.4 0.3-4.8 0.7-7.2 1 -4.8 0.7-9.5 1.3-14.2 2.1 -4.7 0.8-9.3 1.5-13.9 2.3 -4.6 0.9-9.1 1.7-13.5 2.6 -17.8 3.6-34.8 7.5-50.8 11.9 -8 2.1-15.7 4.5-23.3 6.7 -3.8 1.1-7.4 2.4-11.1 3.5 -1.8 0.6-3.6 1.2-5.4 1.8 -0.9 0.3-1.8 0.6-2.7 0.9 -0.9 0.3-1.8 0.6-2.6 0.9 -27.9 9.6-51.7 19.6-71 28.6 -9.7 4.4-18.1 8.7-25.5 12.4 -3.6 1.9-7 3.7-10.1 5.3 -3.1 1.6-5.9 3.1-8.4 4.5 -5 2.8-8.8 4.9-11.3 6.3 -2.6 1.4-3.9 2.2-3.9 2.2s-1.3 0.8-3.8 2.3c-2.5 1.5-6.3 3.7-11.2 6.6 -2.4 1.5-5.1 3.2-8.1 5 -3 1.8-6.2 3.8-9.6 6.1 -3.4 2.3-7.1 4.7-11.1 7.3 -3.9 2.7-8 5.6-12.4 8.6 -17.3 12.3-37.9 27.8-60.2 47.3 -5.5 4.9-11.3 9.9-17 15.3 -2.9 2.7-5.8 5.4-8.7 8.2 -2.9 2.8-5.8 5.7-8.8 8.6 -3 2.9-5.9 5.9-8.9 8.9 -3 3.1-6 6.1-8.9 9.3 -3 3.2-6 6.4-9 9.7 -3 3.3-5.9 6.7-9 10.1 -12 13.7-24 28.3-35.8 44 -11.7 15.7-23.3 32.4-34.4 50 -22.3 35.2-42.7 74.4-59.7 116.5 -17.1 42.1-30.8 87.3-40 134.1 -9.2 46.8-14 95.3-14 143.8 0 48.5 4.8 97 14 143.8 9.2 46.8 22.9 92 40 134.1 17.1 42.1 37.4 81.3 59.7 116.5 11.1 17.6 22.7 34.3 34.4 50 11.8 15.7 23.8 30.3 35.8 44 3 3.4 6 6.8 9 10.1 3 3.3 6 6.5 9 9.7 2.9 3.2 6 6.2 8.9 9.3 3 3 5.9 6.1 8.9 8.9 3 2.9 5.9 5.8 8.8 8.6 2.9 2.8 5.9 5.5 8.7 8.2 5.7 5.4 11.5 10.4 17 15.3 22.3 19.5 42.9 35 60.2 47.3 4.4 3 8.5 5.9 12.4 8.6 3.9 2.6 7.6 5 11.1 7.3 3.4 2.3 6.7 4.3 9.6 6.1 3 1.8 5.7 3.5 8.1 5 4.9 3 8.6 5.1 11.2 6.6 2.5 1.5 3.8 2.3 3.8 2.3s1.3 0.8 3.9 2.2c2.6 1.4 6.4 3.6 11.3 6.3 2.5 1.4 5.3 2.8 8.4 4.5 3.1 1.6 6.5 3.4 10.1 5.3 7.4 3.7 15.8 8 25.5 12.4 19.2 8.9 43 18.9 71 28.6 0.9 0.3 1.7 0.6 2.6 0.9 0.9 0.3 1.8 0.6 2.7 0.9 1.8 0.6 3.6 1.2 5.4 1.8 3.6 1.2 7.3 2.4 11.1 3.5 7.5 2.2 15.2 4.6 23.3 6.7 16 4.5 33 8.4 50.8 11.9 4.5 0.9 9 1.7 13.5 2.6 4.6 0.8 9.2 1.5 13.9 2.3 4.7 0.8 9.4 1.4 14.2 2.1 2.4 0.3 4.8 0.7 7.2 1 2.4 0.3 4.8 0.6 7.3 0.9 19.5 2.4 39.7 3.9 60.5 4.7 20.8 0.7 42.3 0.8 64.1-0.3 21.9-1.1 44.1-3.1 66.7-6.2 45-6.2 91-16.9 136.2-32.3 45.2-15.4 89.6-35.5 131.6-59.8 42-24.3 81.5-52.8 117.4-84.2 35.9-31.5 68.2-65.9 96.2-101.7 28.1-35.8 51.7-73.1 71.2-109.9 2.4-4.6 4.9-9.2 7.1-13.8 1.1-2.3 2.3-4.6 3.4-6.9 1.1-2.3 2.3-4.6 3.3-6.9 2.1-4.6 4.3-9.1 6.4-13.7 2-4.6 4-9.1 5.9-13.6 7.7-18 14.4-35.8 20.3-53 1.4-4.3 2.8-8.6 4.2-12.8 0.7-2.1 1.4-4.2 2-6.3 0.6-2.1 1.3-4.2 1.9-6.3 0.6-2.1 1.2-4.2 1.9-6.2 0.6-2.1 1.2-4.1 1.8-6.2 1.1-4.1 2.2-8.2 3.3-12.2 0.3-1 0.5-2 0.8-3 0.2-1 0.5-2 0.7-3 0.5-2 1-4 1.4-5.9 0.5-2 1-3.9 1.4-5.8 0.5-1.9 0.9-3.9 1.3-5.8 1.6-7.7 3.4-15.1 4.7-22.4 5.6-29 8.8-54.6 10.7-75.7 1.1-10.6 1.5-20 2-28.3 0.3-8.2 0.6-15.2 0.8-20.9 0.1-11.4 0.2-17.4 0.2-17.4S1552.3 805.4 1552.2 794zM1537.2 828.5c-0.1 5.6-0.4 12.4-0.7 20.5 -0.6 8.1-1 17.3-2 27.7 -1.8 20.7-5 45.8-10.5 74.2 -1.3 7.1-3 14.4-4.6 21.9 -0.4 1.9-0.8 3.8-1.3 5.7 -0.5 1.9-0.9 3.8-1.4 5.7 -0.5 1.9-0.9 3.9-1.4 5.8 -0.2 1-0.5 1.9-0.7 2.9 -0.3 1-0.5 1.9-0.8 2.9 -1.1 3.9-2.1 7.9-3.2 11.9 -0.5 2-1.1 4-1.7 6 -0.6 2-1.2 4.1-1.8 6.1 -0.6 2-1.2 4.1-1.8 6.2 -0.6 2.1-1.3 4.1-2 6.2 -1.4 4.1-2.7 8.3-4.1 12.6 -5.8 16.9-12.4 34.2-19.9 51.9 -1.9 4.4-3.9 8.8-5.8 13.3 -2.1 4.4-4.1 8.9-6.2 13.4 -1 2.3-2.1 4.5-3.3 6.7 -1.1 2.2-2.2 4.5-3.3 6.7 -2.2 4.5-4.6 9-7 13.5 -19.1 36.1-42.3 72.6-69.7 107.7 -27.4 35.1-59.1 68.8-94.3 99.7 -35.2 30.8-73.9 58.7-115.1 82.5 -41.1 23.8-84.6 43.5-128.9 58.6 -44.3 15.1-89.3 25.5-133.4 31.6 -22.1 3.1-43.9 5.1-65.3 6.1 -21.4 1.1-42.4 1-62.8 0.3 -20.4-0.8-40.2-2.3-59.3-4.6 -2.4-0.3-4.8-0.5-7.1-0.8 -2.4-0.3-4.7-0.7-7-1 -4.7-0.7-9.3-1.2-13.9-2.1 -4.6-0.8-9.1-1.5-13.6-2.2 -4.5-0.9-8.9-1.7-13.3-2.5 -17.5-3.5-34.1-7.3-49.8-11.7 -7.9-2-15.4-4.4-22.8-6.6 -3.7-1.1-7.3-2.3-10.8-3.5 -1.8-0.6-3.5-1.1-5.3-1.7 -0.9-0.3-1.7-0.6-2.6-0.8 -0.9-0.3-1.7-0.6-2.6-0.9 -27.4-9.4-50.7-19.2-69.5-28 -9.5-4.3-17.7-8.5-25-12.1 -3.6-1.9-6.9-3.6-9.9-5.2 -3-1.6-5.8-3-8.2-4.4 -4.9-2.7-8.6-4.8-11.1-6.2 -2.5-1.4-3.8-2.2-3.8-2.2s-5.1-3-14.7-8.7c-2.4-1.5-5-3.1-7.9-4.9 -2.9-1.8-6.1-3.8-9.4-6 -3.4-2.2-7-4.6-10.9-7.1 -3.8-2.6-7.8-5.4-12.1-8.4 -17-12-37.1-27.2-59-46.3 -5.4-4.8-11.1-9.7-16.6-15 -2.8-2.6-5.7-5.2-8.5-8 -2.8-2.8-5.7-5.6-8.6-8.4 -2.9-2.8-5.8-5.8-8.7-8.8 -2.9-3-5.9-6-8.8-9.1 -2.9-3.1-5.8-6.3-8.8-9.5 -2.9-3.3-5.8-6.6-8.8-9.9 -11.7-13.4-23.5-27.8-35.1-43.1 -11.5-15.4-22.8-31.7-33.7-49 -21.8-34.5-41.8-72.9-58.5-114.1 -16.7-41.3-30.1-85.5-39.2-131.4 -9.1-45.9-13.7-93.4-13.7-141 0-47.6 4.7-95.1 13.7-141 9-45.9 22.4-90.1 39.2-131.4 16.7-41.3 36.7-79.6 58.5-114.1 10.9-17.3 22.2-33.6 33.7-49 11.5-15.4 23.4-29.7 35.1-43.1 3-3.3 5.9-6.6 8.8-9.9 3-3.2 5.9-6.3 8.8-9.5 2.9-3.2 5.9-6.1 8.8-9.1 2.9-3 5.7-6 8.7-8.8 2.9-2.8 5.8-5.6 8.6-8.4 2.8-2.8 5.7-5.4 8.5-8 5.6-5.3 11.2-10.2 16.6-15 21.8-19.1 42-34.3 59-46.3 4.3-3 8.3-5.8 12.1-8.4 3.9-2.5 7.5-4.9 10.9-7.2 3.4-2.3 6.5-4.2 9.4-6 2.9-1.8 5.5-3.5 7.9-4.9 9.6-5.7 14.7-8.7 14.7-8.7s1.3-0.8 3.8-2.2c2.5-1.4 6.2-3.5 11.1-6.2 2.4-1.4 5.2-2.8 8.2-4.4 3-1.6 6.3-3.3 9.9-5.2 7.2-3.6 15.5-7.8 25-12.1 18.9-8.7 42.1-18.5 69.5-28 0.9-0.3 1.7-0.6 2.6-0.9 0.9-0.3 1.7-0.6 2.6-0.8 1.7-0.6 3.5-1.1 5.3-1.7 3.6-1.1 7.1-2.4 10.8-3.5 7.4-2.2 14.9-4.6 22.8-6.6 15.6-4.4 32.3-8.2 49.8-11.7 4.4-0.8 8.8-1.7 13.3-2.5 4.5-0.7 9-1.5 13.6-2.2 4.6-0.8 9.2-1.4 13.9-2.1 2.3-0.3 4.7-0.7 7-1 2.4-0.3 4.7-0.6 7.1-0.8 19.1-2.4 38.9-3.9 59.3-4.6 20.4-0.7 41.4-0.8 62.8 0.3 21.4 1.1 43.3 3.1 65.3 6.1 44.1 6.1 89.2 16.5 133.4 31.6 44.3 15.1 87.8 34.7 128.9 58.6 41.1 23.8 79.9 51.7 115.1 82.5 35.2 30.8 66.8 64.6 94.3 99.7 27.5 35.1 50.7 71.6 69.7 107.7 2.4 4.5 4.8 9 7 13.5 1.1 2.3 2.2 4.5 3.3 6.7 1.1 2.2 2.2 4.5 3.3 6.7 2.1 4.5 4.2 9 6.2 13.4 2 4.5 3.9 8.9 5.8 13.3 7.5 17.7 14.1 35 19.9 51.9 1.4 4.2 2.7 8.4 4.1 12.6 0.7 2.1 1.4 4.1 2 6.2 0.6 2.1 1.2 4.1 1.8 6.2 0.6 2 1.2 4.1 1.8 6.1 0.6 2 1.2 4 1.7 6 1.1 4 2.2 8 3.2 11.9 0.3 1 0.5 2 0.8 2.9 0.2 1 0.5 2 0.7 2.9 0.5 1.9 0.9 3.9 1.4 5.8 0.5 1.9 0.9 3.8 1.4 5.7 0.5 1.9 0.9 3.8 1.3 5.7 1.6 7.5 3.3 14.8 4.6 21.9 5.5 28.4 8.6 53.5 10.5 74.2 1 10.3 1.4 19.6 2 27.7 0.3 8.1 0.6 14.9 0.7 20.5 0.1 11.1 0.2 17.1 0.2 17.1S1537.4 817.4 1537.2 828.5z" fill="#1D3DDD"/><path d="M1537.2 794.3c-0.1-5.6-0.4-12.4-0.7-20.5 -0.6-8.1-1-17.3-2-27.7 -1.8-20.7-5-45.8-10.5-74.2 -1.3-7.1-3-14.4-4.6-21.9 -0.4-1.9-0.8-3.8-1.3-5.7 -0.5-1.9-0.9-3.8-1.4-5.7 -0.5-1.9-0.9-3.9-1.4-5.8 -0.2-1-0.5-1.9-0.7-2.9 -0.3-1-0.5-1.9-0.8-2.9 -1.1-3.9-2.1-7.9-3.2-11.9 -0.5-2-1.1-4-1.7-6 -0.6-2-1.2-4-1.8-6.1 -0.6-2-1.2-4.1-1.8-6.2 -0.6-2.1-1.3-4.1-2-6.2 -1.4-4.1-2.7-8.3-4.1-12.6 -5.8-16.9-12.4-34.2-19.9-51.9 -1.9-4.4-3.9-8.8-5.8-13.3 -2.1-4.4-4.1-8.9-6.2-13.4 -1-2.3-2.1-4.5-3.3-6.7 -1.1-2.2-2.2-4.5-3.3-6.7 -2.2-4.5-4.6-9-7-13.5 -19.1-36.1-42.3-72.6-69.7-107.7 -27.4-35.1-59.1-68.8-94.3-99.7 -35.2-30.8-73.9-58.7-115.1-82.5 -41.1-23.8-84.6-43.5-128.9-58.6 -44.3-15.1-89.3-25.5-133.4-31.6 -22.1-3.1-43.9-5.1-65.3-6.1 -21.4-1.1-42.4-1-62.8-0.3 -20.4 0.8-40.2 2.3-59.3 4.6 -2.4 0.3-4.8 0.5-7.1 0.8 -2.4 0.3-4.7 0.7-7 1 -4.7 0.7-9.3 1.2-13.9 2.1 -4.6 0.8-9.1 1.5-13.6 2.2 -4.5 0.9-8.9 1.7-13.3 2.5 -17.5 3.5-34.1 7.3-49.8 11.7 -7.9 2-15.4 4.4-22.8 6.6 -3.7 1.1-7.3 2.3-10.8 3.5 -1.8 0.6-3.5 1.1-5.3 1.7 -0.9 0.3-1.7 0.6-2.6 0.9 -0.9 0.3-1.7 0.6-2.6 0.9 -27.4 9.4-50.7 19.2-69.5 28 -9.5 4.3-17.7 8.5-25 12.1 -3.6 1.9-6.9 3.6-9.9 5.2 -3 1.6-5.8 3-8.2 4.4 -4.9 2.7-8.6 4.8-11.1 6.2 -2.5 1.4-3.8 2.2-3.8 2.2s-5.1 3-14.7 8.7c-2.4 1.5-5 3.1-7.9 4.9 -2.9 1.8-6.1 3.8-9.4 6 -3.4 2.2-7 4.6-10.9 7.2 -3.8 2.6-7.8 5.4-12.1 8.4 -17 12-37.1 27.2-59 46.3 -5.4 4.8-11.1 9.7-16.6 15 -2.8 2.6-5.7 5.2-8.5 8 -2.8 2.8-5.7 5.6-8.6 8.4 -2.9 2.8-5.8 5.8-8.7 8.8 -2.9 3-5.9 6-8.8 9.1 -2.9 3.1-5.8 6.3-8.8 9.5 -2.9 3.3-5.8 6.6-8.8 9.9 -11.7 13.4-23.5 27.8-35.1 43.1 -11.5 15.4-22.8 31.7-33.7 49 -21.8 34.5-41.8 72.9-58.5 114.1 -16.7 41.3-30.1 85.5-39.2 131.4 -9.1 45.9-13.7 93.4-13.7 141 0 47.6 4.7 95.1 13.7 141 9 45.9 22.4 90.1 39.2 131.4 16.7 41.3 36.7 79.6 58.5 114.1 10.9 17.3 22.2 33.6 33.7 49 11.5 15.4 23.4 29.7 35.1 43.1 3 3.3 5.9 6.6 8.8 9.9 3 3.2 5.9 6.3 8.8 9.5 2.9 3.2 5.9 6.1 8.8 9.1 2.9 3 5.7 6 8.7 8.8 2.9 2.8 5.8 5.6 8.6 8.4 2.8 2.8 5.7 5.4 8.5 8 5.6 5.3 11.2 10.2 16.6 15 21.8 19.1 42 34.3 59 46.3 4.3 3 8.3 5.8 12.1 8.4 3.9 2.5 7.5 4.9 10.9 7.2 3.4 2.3 6.5 4.2 9.4 6 2.9 1.8 5.5 3.5 7.9 4.9 9.6 5.7 14.7 8.7 14.7 8.7s1.3 0.8 3.8 2.2c2.5 1.4 6.2 3.5 11.1 6.2 2.4 1.4 5.2 2.8 8.2 4.4 3 1.6 6.3 3.3 9.9 5.2 7.2 3.6 15.5 7.8 25 12.1 18.9 8.7 42.1 18.5 69.5 28 0.9 0.3 1.7 0.6 2.6 0.9 0.9 0.3 1.7 0.6 2.6 0.9 1.7 0.6 3.5 1.1 5.3 1.7 3.6 1.1 7.1 2.4 10.8 3.5 7.4 2.2 14.9 4.6 22.8 6.6 15.6 4.4 32.3 8.2 49.8 11.7 4.4 0.8 8.8 1.7 13.3 2.5 4.5 0.7 9 1.5 13.6 2.2 4.6 0.8 9.2 1.4 13.9 2.1 2.3 0.3 4.7 0.7 7 1 2.4 0.3 4.7 0.6 7.1 0.8 19.1 2.4 38.9 3.9 59.3 4.6 20.4 0.7 41.4 0.8 62.8-0.3 21.4-1.1 43.3-3.1 65.3-6.1 44.1-6.1 89.2-16.5 133.4-31.6 44.3-15.1 87.8-34.7 128.9-58.6 41.1-23.8 79.9-51.7 115.1-82.5 35.2-30.8 66.8-64.6 94.3-99.7 27.5-35.1 50.7-71.6 69.7-107.7 2.4-4.5 4.8-9 7-13.5 1.1-2.3 2.2-4.5 3.3-6.7 1.1-2.2 2.2-4.5 3.3-6.7 2.1-4.5 4.2-9 6.2-13.4 2-4.5 3.9-8.9 5.8-13.3 7.5-17.7 14.1-35 19.9-51.9 1.4-4.2 2.7-8.4 4.1-12.6 0.7-2.1 1.4-4.1 2-6.2 0.6-2.1 1.2-4.1 1.8-6.2 0.6-2 1.2-4.1 1.8-6.1 0.6-2 1.2-4 1.7-6 1.1-4 2.2-8 3.2-11.9 0.3-1 0.5-2 0.8-2.9 0.2-1 0.5-2 0.7-2.9 0.5-1.9 0.9-3.9 1.4-5.8 0.5-1.9 0.9-3.8 1.4-5.7 0.5-1.9 0.9-3.8 1.3-5.7 1.6-7.5 3.3-14.8 4.6-21.9 5.5-28.4 8.6-53.5 10.5-74.2 1-10.3 1.4-19.6 2-27.7 0.3-8.1 0.6-14.9 0.7-20.5 0.1-11.1 0.2-17.1 0.2-17.1S1537.4 805.5 1537.2 794.3zM1522.3 828.2c-0.1 5.5-0.4 12.2-0.7 20.1 -0.6 7.9-0.9 17-2 27.1 -1.8 20.3-4.9 44.9-10.3 72.7 -1.2 7-2.9 14.1-4.5 21.5 -0.4 1.8-0.8 3.7-1.3 5.5 -0.5 1.9-0.9 3.7-1.4 5.6 -0.5 1.9-0.9 3.8-1.4 5.7 -0.2 1-0.5 1.9-0.7 2.9 -0.3 1-0.5 1.9-0.8 2.9 -1 3.8-2.1 7.7-3.2 11.7 -0.5 2-1.1 3.9-1.7 5.9 -0.6 2-1.2 4-1.8 6 -0.6 2-1.2 4-1.8 6 -0.6 2-1.3 4-1.9 6.1 -1.3 4.1-2.7 8.2-4 12.3 -5.7 16.5-12.1 33.5-19.5 50.8 -1.9 4.3-3.8 8.7-5.7 13 -2 4.3-4.1 8.7-6.1 13.1 -1 2.2-2.1 4.4-3.2 6.6 -1.1 2.2-2.2 4.4-3.3 6.6 -2.1 4.4-4.5 8.8-6.8 13.2 -18.7 35.3-41.4 71.1-68.3 105.5 -26.9 34.4-57.9 67.4-92.3 97.6 -34.5 30.2-72.4 57.5-112.7 80.8 -40.3 23.3-82.9 42.6-126.2 57.4 -43.4 14.8-87.5 25-130.7 31 -21.6 3-43 4.9-64 6 -21 1.1-41.6 1-61.6 0.3 -20-0.7-39.4-2.2-58.1-4.5 -2.3-0.3-4.7-0.5-7-0.8 -2.3-0.3-4.6-0.6-6.9-1 -4.6-0.7-9.1-1.2-13.6-2 -4.5-0.7-8.9-1.5-13.3-2.2 -4.4-0.8-8.7-1.7-13-2.5 -17.1-3.4-33.4-7.2-48.7-11.5 -7.7-2-15.1-4.3-22.3-6.4 -3.6-1.1-7.1-2.3-10.6-3.4 -1.7-0.6-3.5-1.1-5.2-1.7 -0.9-0.3-1.7-0.6-2.6-0.8 -0.8-0.3-1.7-0.6-2.5-0.9 -26.8-9.2-49.6-18.8-68.1-27.4 -9.3-4.2-17.4-8.4-24.4-11.9 -3.5-1.8-6.7-3.5-9.7-5.1 -3-1.6-5.7-2.9-8-4.3 -4.8-2.7-8.4-4.7-10.9-6.1 -2.5-1.4-3.7-2.1-3.7-2.1s-5-3-14.4-8.5c-2.3-1.4-4.9-3.1-7.7-4.8 -2.8-1.8-6-3.7-9.2-5.9 -3.3-2.2-6.9-4.5-10.6-7 -3.7-2.6-7.7-5.3-11.9-8.2 -16.6-11.8-36.4-26.7-57.7-45.4 -5.3-4.7-10.8-9.5-16.3-14.7 -2.7-2.6-5.6-5.1-8.4-7.8 -2.8-2.7-5.6-5.5-8.4-8.2 -2.9-2.7-5.6-5.7-8.5-8.6 -2.8-2.9-5.8-5.8-8.6-8.9 -2.8-3.1-5.7-6.1-8.6-9.3 -2.8-3.2-5.7-6.4-8.6-9.7 -11.5-13.1-23.1-27.2-34.4-42.2 -11.3-15.1-22.4-31.1-33-48 -21.4-33.8-40.9-71.4-57.3-111.8 -16.4-40.4-29.5-83.7-38.3-128.7 -8.9-44.9-13.4-91.5-13.4-138.1 0-46.6 4.6-93.1 13.4-138.1 8.8-44.9 22-88.3 38.3-128.7 16.4-40.4 35.9-78 57.3-111.8 10.7-16.9 21.8-32.9 33-48 11.3-15.1 22.9-29.1 34.4-42.2 2.9-3.3 5.8-6.5 8.6-9.7 2.9-3.1 5.8-6.2 8.6-9.3 2.8-3.1 5.8-6 8.6-8.9 2.9-2.9 5.6-5.8 8.5-8.6 2.8-2.8 5.7-5.5 8.4-8.2 2.8-2.7 5.6-5.3 8.4-7.8 5.5-5.2 11-10 16.3-14.7 21.4-18.7 41.1-33.6 57.7-45.4 4.2-2.9 8.1-5.6 11.9-8.2 3.8-2.5 7.3-4.8 10.6-7 3.3-2.2 6.4-4.1 9.2-5.9 2.8-1.8 5.4-3.4 7.7-4.8 9.4-5.6 14.4-8.5 14.4-8.5s1.2-0.8 3.7-2.1c2.5-1.4 6.1-3.4 10.9-6.1 2.4-1.4 5.1-2.7 8-4.3 3-1.6 6.2-3.3 9.7-5.1 7.1-3.5 15.2-7.6 24.4-11.9 18.5-8.6 41.3-18.2 68.1-27.4 0.8-0.3 1.7-0.6 2.5-0.9 0.8-0.3 1.7-0.6 2.6-0.8 1.7-0.6 3.4-1.1 5.2-1.7 3.5-1.1 7-2.3 10.6-3.4 7.2-2.1 14.6-4.5 22.3-6.4 15.3-4.3 31.6-8 48.7-11.5 4.3-0.8 8.6-1.6 13-2.5 4.4-0.7 8.8-1.5 13.3-2.2 4.5-0.8 9-1.3 13.6-2 2.3-0.3 4.6-0.6 6.9-1 2.3-0.3 4.6-0.5 7-0.8 18.7-2.3 38.1-3.8 58.1-4.5 20-0.7 40.6-0.8 61.6 0.3 21 1 42.4 3 64 6 43.2 6 87.3 16.2 130.7 31 43.4 14.7 85.9 34 126.2 57.4 40.3 23.3 78.2 50.6 112.7 80.8 34.5 30.2 65.5 63.2 92.3 97.6 26.9 34.4 49.6 70.1 68.3 105.5 2.3 4.4 4.7 8.8 6.8 13.2 1.1 2.2 2.2 4.4 3.3 6.6 1.1 2.2 2.2 4.4 3.2 6.6 2.1 4.4 4.1 8.8 6.1 13.1 1.9 4.4 3.8 8.7 5.7 13 7.4 17.3 13.8 34.3 19.5 50.8 1.4 4.1 2.7 8.3 4 12.3 0.6 2 1.3 4 1.9 6.1 0.6 2 1.2 4 1.8 6 0.6 2 1.2 4 1.8 6 0.6 2 1.2 3.9 1.7 5.9 1.1 3.9 2.1 7.8 3.2 11.7 0.3 1 0.5 1.9 0.8 2.9 0.2 1 0.5 1.9 0.7 2.9 0.5 1.9 0.9 3.8 1.4 5.7 0.5 1.9 0.9 3.7 1.4 5.6 0.5 1.9 0.9 3.7 1.3 5.5 1.6 7.4 3.2 14.5 4.5 21.5 5.4 27.8 8.5 52.4 10.3 72.7 1 10.1 1.4 19.2 2 27.1 0.3 7.9 0.6 14.6 0.7 20.1 0.1 10.9 0.2 16.7 0.2 16.7S1522.4 817.2 1522.3 828.2z" fill="#4914A0"/><path d="M1522.3 794.7c-0.1-5.5-0.4-12.2-0.7-20.1 -0.6-7.9-0.9-17-2-27.1 -1.8-20.3-4.9-44.9-10.3-72.7 -1.2-7-2.9-14.1-4.5-21.5 -0.4-1.8-0.8-3.7-1.3-5.5 -0.5-1.9-0.9-3.7-1.4-5.6 -0.5-1.9-0.9-3.8-1.4-5.7 -0.2-1-0.5-1.9-0.7-2.9 -0.3-1-0.5-1.9-0.8-2.9 -1-3.8-2.1-7.7-3.2-11.7 -0.5-2-1.1-3.9-1.7-5.9 -0.6-2-1.2-4-1.8-6 -0.6-2-1.2-4-1.8-6 -0.6-2-1.3-4-1.9-6.1 -1.3-4.1-2.7-8.2-4-12.3 -5.7-16.5-12.1-33.5-19.5-50.8 -1.9-4.3-3.8-8.7-5.7-13 -2-4.3-4.1-8.7-6.1-13.1 -1-2.2-2.1-4.4-3.2-6.6 -1.1-2.2-2.2-4.4-3.3-6.6 -2.1-4.4-4.5-8.8-6.8-13.2 -18.7-35.3-41.4-71.1-68.3-105.5 -26.9-34.4-57.9-67.4-92.3-97.6 -34.5-30.2-72.4-57.5-112.7-80.8 -40.3-23.3-82.9-42.6-126.2-57.4 -43.4-14.8-87.5-25-130.7-31 -21.6-3-43-4.9-64-6 -21-1.1-41.6-1-61.6-0.3 -20 0.7-39.4 2.2-58.1 4.5 -2.3 0.3-4.7 0.5-7 0.8 -2.3 0.3-4.6 0.6-6.9 1 -4.6 0.7-9.1 1.2-13.6 2 -4.5 0.7-8.9 1.5-13.3 2.2 -4.4 0.8-8.7 1.7-13 2.5 -17.1 3.4-33.4 7.2-48.7 11.5 -7.7 2-15.1 4.3-22.3 6.4 -3.6 1.1-7.1 2.3-10.6 3.4 -1.7 0.6-3.5 1.1-5.2 1.7 -0.9 0.3-1.7 0.6-2.6 0.8 -0.8 0.3-1.7 0.6-2.5 0.9 -26.8 9.2-49.6 18.8-68.1 27.4 -9.3 4.2-17.4 8.4-24.4 11.9 -3.5 1.8-6.7 3.5-9.7 5.1 -3 1.6-5.7 2.9-8 4.3 -4.8 2.7-8.4 4.7-10.9 6.1 -2.5 1.4-3.7 2.1-3.7 2.1s-5 3-14.4 8.5c-2.3 1.4-4.9 3.1-7.7 4.8 -2.8 1.8-6 3.7-9.2 5.9 -3.3 2.2-6.9 4.5-10.6 7 -3.7 2.6-7.7 5.3-11.9 8.2 -16.6 11.8-36.4 26.7-57.7 45.4 -5.3 4.7-10.8 9.5-16.3 14.7 -2.7 2.6-5.6 5.1-8.4 7.8 -2.8 2.7-5.6 5.5-8.4 8.2 -2.9 2.7-5.6 5.7-8.5 8.6 -2.8 2.9-5.8 5.8-8.6 8.9 -2.8 3.1-5.7 6.1-8.6 9.3 -2.8 3.2-5.7 6.4-8.6 9.7 -11.5 13.1-23.1 27.2-34.4 42.2 -11.3 15.1-22.4 31.1-33 48 -21.4 33.8-40.9 71.4-57.3 111.8 -16.4 40.4-29.5 83.7-38.3 128.7 -8.9 44.9-13.4 91.5-13.4 138.1 0 46.6 4.6 93.1 13.4 138.1 8.8 44.9 22 88.3 38.3 128.7 16.4 40.4 35.9 78 57.3 111.8 10.7 16.9 21.8 32.9 33 48 11.3 15.1 22.9 29.1 34.4 42.2 2.9 3.3 5.8 6.5 8.6 9.7 2.9 3.1 5.8 6.2 8.6 9.3 2.8 3.1 5.8 6 8.6 8.9 2.9 2.9 5.6 5.8 8.5 8.6 2.8 2.8 5.7 5.5 8.4 8.2 2.8 2.7 5.6 5.3 8.4 7.8 5.5 5.2 11 10 16.3 14.7 21.4 18.7 41.1 33.6 57.7 45.4 4.2 2.9 8.1 5.6 11.9 8.2 3.8 2.5 7.3 4.8 10.6 7 3.3 2.2 6.4 4.1 9.2 5.9 2.8 1.8 5.4 3.4 7.7 4.8 9.4 5.6 14.4 8.5 14.4 8.5s1.2 0.8 3.7 2.1c2.5 1.4 6.1 3.4 10.9 6.1 2.4 1.4 5.1 2.7 8 4.3 3 1.6 6.2 3.3 9.7 5.1 7.1 3.5 15.2 7.6 24.4 11.9 18.5 8.6 41.3 18.2 68.1 27.4 0.8 0.3 1.7 0.6 2.5 0.9 0.8 0.3 1.7 0.6 2.6 0.8 1.7 0.6 3.4 1.1 5.2 1.7 3.5 1.1 7 2.3 10.6 3.4 7.2 2.1 14.6 4.5 22.3 6.4 15.3 4.3 31.6 8 48.7 11.5 4.3 0.8 8.6 1.6 13 2.5 4.4 0.7 8.8 1.5 13.3 2.2 4.5 0.8 9 1.3 13.6 2 2.3 0.3 4.6 0.6 6.9 1 2.3 0.3 4.6 0.5 7 0.8 18.7 2.3 38.1 3.8 58.1 4.5 20 0.7 40.6 0.8 61.6-0.3 21-1 42.4-3 64-6 43.2-6 87.3-16.2 130.7-31 43.4-14.7 85.9-34 126.2-57.4 40.3-23.3 78.2-50.6 112.7-80.8 34.5-30.2 65.5-63.2 92.3-97.6 26.9-34.4 49.6-70.1 68.3-105.5 2.3-4.4 4.7-8.8 6.8-13.2 1.1-2.2 2.2-4.4 3.3-6.6 1.1-2.2 2.2-4.4 3.2-6.6 2.1-4.4 4.1-8.8 6.1-13.1 1.9-4.4 3.8-8.7 5.7-13 7.4-17.3 13.8-34.3 19.5-50.8 1.4-4.1 2.7-8.3 4-12.3 0.6-2 1.3-4 1.9-6.1 0.6-2 1.2-4 1.8-6 0.6-2 1.2-4 1.8-6 0.6-2 1.2-3.9 1.7-5.9 1.1-3.9 2.1-7.8 3.2-11.7 0.3-1 0.5-1.9 0.8-2.9 0.2-1 0.5-1.9 0.7-2.9 0.5-1.9 0.9-3.8 1.4-5.7 0.5-1.9 0.9-3.7 1.4-5.6 0.5-1.9 0.9-3.7 1.3-5.5 1.6-7.4 3.2-14.5 4.5-21.5 5.4-27.8 8.5-52.4 10.3-72.7 1-10.1 1.4-19.2 2-27.1 0.3-7.9 0.6-14.6 0.7-20.1 0.1-10.9 0.2-16.7 0.2-16.7S1522.4 805.6 1522.3 794.7zM1507.3 827.8c-0.1 5.3-0.4 11.9-0.7 19.7 -0.5 7.7-0.9 16.6-1.9 26.6 -1.8 19.9-4.8 43.9-10.1 71.2 -1.2 6.8-2.9 13.8-4.4 21 -0.4 1.8-0.8 3.6-1.3 5.4 -0.4 1.8-0.9 3.6-1.3 5.5 -0.4 1.8-0.9 3.7-1.4 5.6 -0.2 0.9-0.5 1.9-0.7 2.8 -0.3 0.9-0.5 1.9-0.8 2.8 -1 3.8-2 7.6-3.1 11.4 -0.5 1.9-1.1 3.9-1.7 5.8 -0.6 1.9-1.2 3.9-1.7 5.8 -0.6 2-1.2 3.9-1.8 5.9 -0.6 2-1.3 3.9-1.9 5.9 -1.3 4-2.6 8-3.9 12 -5.5 16.2-11.9 32.8-19.1 49.7 -1.8 4.2-3.7 8.5-5.6 12.8 -2 4.2-4 8.5-6 12.8 -1 2.2-2.1 4.3-3.1 6.4 -1.1 2.1-2.1 4.3-3.2 6.5 -2.1 4.3-4.4 8.6-6.7 13 -18.3 34.6-40.5 69.6-66.9 103.2 -26.3 33.7-56.6 66-90.4 95.6 -33.7 29.6-70.9 56.3-110.3 79.1 -39.4 22.8-81.1 41.7-123.5 56.1 -42.4 14.5-85.6 24.4-127.9 30.3 -21.2 2.9-42.1 4.8-62.6 5.9 -20.5 1-40.7 1-60.3 0.3 -19.6-0.7-38.6-2.2-56.9-4.4 -2.3-0.3-4.6-0.5-6.8-0.8 -2.3-0.3-4.5-0.6-6.8-0.9 -4.5-0.6-8.9-1.2-13.3-2 -4.4-0.7-8.7-1.4-13-2.2 -4.3-0.8-8.5-1.6-12.7-2.4 -16.7-3.4-32.7-7-47.7-11.2 -7.5-1.9-14.8-4.2-21.8-6.3 -3.5-1.1-7-2.2-10.4-3.3 -1.7-0.6-3.4-1.1-5.1-1.6 -0.8-0.3-1.7-0.5-2.5-0.8 -0.8-0.3-1.6-0.6-2.5-0.9 -26.2-9-48.6-18.4-66.6-26.8 -9.1-4.1-17-8.2-23.9-11.6 -3.4-1.8-6.6-3.5-9.5-5 -2.9-1.5-5.6-2.9-7.9-4.2 -4.7-2.6-8.2-4.6-10.6-5.9 -2.4-1.3-3.6-2.1-3.6-2.1s-4.9-2.9-14.1-8.4c-2.3-1.4-4.8-3-7.6-4.7 -2.8-1.7-5.8-3.6-9.1-5.8 -3.2-2.1-6.7-4.4-10.4-6.9 -3.6-2.5-7.5-5.2-11.6-8.1 -16.3-11.5-35.6-26.1-56.5-44.4 -5.2-4.6-10.6-9.3-16-14.4 -2.7-2.5-5.5-5-8.2-7.7 -2.7-2.7-5.5-5.3-8.3-8.1 -2.8-2.7-5.5-5.6-8.3-8.4 -2.8-2.9-5.7-5.7-8.4-8.7 -2.8-3-5.6-6-8.5-9.1 -2.8-3.1-5.6-6.3-8.4-9.5 -11.2-12.9-22.6-26.6-33.6-41.4 -11-14.8-21.9-30.4-32.3-47 -20.9-33.1-40.1-69.8-56.1-109.4 -16-39.6-28.9-82-37.5-126 -8.7-44-13.1-89.5-13.2-135.2 0-45.6 4.5-91.2 13.2-135.2 8.6-44 21.5-86.4 37.5-126 16-39.6 35.1-76.3 56.1-109.4 10.4-16.6 21.3-32.2 32.3-47 11.1-14.7 22.4-28.5 33.6-41.4 2.8-3.2 5.6-6.4 8.4-9.5 2.9-3.1 5.7-6.1 8.5-9.1 2.8-3 5.6-5.9 8.4-8.7 2.8-2.8 5.5-5.7 8.3-8.4 2.8-2.7 5.5-5.4 8.3-8.1 2.7-2.6 5.5-5.1 8.2-7.7 5.3-5.1 10.8-9.8 16-14.4 20.9-18.3 40.3-32.9 56.5-44.4 4.1-2.8 8-5.5 11.6-8.1 3.7-2.4 7.2-4.7 10.4-6.9 3.2-2.2 6.3-4 9.1-5.8 2.8-1.7 5.3-3.3 7.6-4.7 9.2-5.5 14.1-8.4 14.1-8.4s1.2-0.8 3.6-2.1c2.4-1.3 6-3.3 10.6-5.9 2.3-1.3 5-2.7 7.9-4.2 2.9-1.5 6.1-3.2 9.5-5 6.9-3.4 14.9-7.5 23.9-11.6 18.1-8.4 40.4-17.8 66.6-26.8 0.8-0.3 1.6-0.6 2.5-0.9 0.8-0.3 1.7-0.5 2.5-0.8 1.7-0.5 3.4-1.1 5.1-1.6 3.4-1.1 6.8-2.3 10.4-3.3 7.1-2.1 14.3-4.4 21.8-6.3 15-4.2 31-7.8 47.7-11.2 4.2-0.8 8.4-1.6 12.7-2.4 4.3-0.7 8.6-1.4 13-2.2 4.4-0.8 8.8-1.3 13.3-2 2.2-0.3 4.5-0.6 6.8-0.9 2.3-0.3 4.5-0.5 6.8-0.8 18.3-2.3 37.3-3.7 56.9-4.4 19.6-0.7 39.8-0.8 60.3 0.3 20.5 1 41.5 2.9 62.6 5.9 42.3 5.8 85.5 15.8 127.9 30.3 42.4 14.4 84.1 33.3 123.5 56.1 39.4 22.8 76.6 49.6 110.3 79.1 33.8 29.6 64.1 61.9 90.4 95.6 26.4 33.6 48.6 68.6 66.9 103.2 2.3 4.3 4.6 8.6 6.7 13 1.1 2.2 2.1 4.3 3.2 6.5 1.1 2.1 2.1 4.3 3.1 6.4 2 4.3 4 8.6 6 12.8 1.9 4.3 3.7 8.5 5.6 12.8 7.2 16.9 13.5 33.6 19.1 49.7 1.3 4.1 2.6 8.1 3.9 12 0.6 2 1.3 4 1.9 5.9 0.6 2 1.2 4 1.8 5.9 0.6 2 1.2 3.9 1.7 5.8 0.6 1.9 1.2 3.9 1.7 5.8 1 3.9 2.1 7.7 3.1 11.4 0.3 0.9 0.5 1.9 0.8 2.8 0.2 0.9 0.5 1.9 0.7 2.8 0.5 1.9 0.9 3.7 1.4 5.6 0.4 1.8 0.9 3.7 1.3 5.5 0.5 1.8 0.9 3.6 1.3 5.4 1.5 7.2 3.2 14.2 4.4 21 5.3 27.2 8.3 51.3 10.1 71.2 1 9.9 1.4 18.8 1.9 26.6 0.3 7.7 0.6 14.3 0.7 19.7 0.1 10.7 0.2 16.4 0.2 16.4S1507.5 817.1 1507.3 827.8z" fill="#9913E6"/></svg>
 

